%TF.GenerationSoftware,KiCad,Pcbnew,9.0.8*%
%TF.CreationDate,2026-03-30T08:35:55-04:00*%
%TF.ProjectId,A1200KBv2,41313230-304b-4427-9632-2e6b69636164,rev?*%
%TF.SameCoordinates,Original*%
%TF.FileFunction,Soldermask,Bot*%
%TF.FilePolarity,Negative*%
%FSLAX46Y46*%
G04 Gerber Fmt 4.6, Leading zero omitted, Abs format (unit mm)*
G04 Created by KiCad (PCBNEW 9.0.8) date 2026-03-30 08:35:55*
%MOMM*%
%LPD*%
G01*
G04 APERTURE LIST*
%ADD10C,5.100000*%
%ADD11C,2.300000*%
%ADD12R,1.700000X1.700000*%
%ADD13O,1.700000X1.700000*%
%ADD14C,1.524000*%
G04 APERTURE END LIST*
D10*
%TO.C,K60*%
X274632800Y-136320400D03*
D11*
X270232800Y-141020400D03*
X277232800Y-142070400D03*
%TD*%
D10*
%TO.C,K8*%
X88704800Y-98220400D03*
D11*
X84304800Y-102920400D03*
X91304800Y-103970400D03*
%TD*%
D10*
%TO.C,K56*%
X257614800Y-50513600D03*
D11*
X262014800Y-45813600D03*
X255014800Y-44763600D03*
%TD*%
D10*
%TO.C,K64*%
X298254800Y-98220400D03*
D11*
X293854800Y-102920400D03*
X300854800Y-103970400D03*
%TD*%
D10*
%TO.C,K68*%
X305366800Y-50513600D03*
D11*
X309766800Y-45813600D03*
X302766800Y-44763600D03*
%TD*%
D10*
%TO.C,K53*%
X260154800Y-98220400D03*
D11*
X255754800Y-102920400D03*
X262754800Y-103970400D03*
%TD*%
D10*
%TO.C,K81*%
X421558800Y-117172000D03*
D11*
X417158800Y-121872000D03*
X424158800Y-122922000D03*
%TD*%
D10*
%TO.C,K26*%
X141282800Y-136320400D03*
D11*
X136882800Y-141020400D03*
X143882800Y-142070400D03*
%TD*%
D10*
%TO.C,K5*%
X67474166Y-136320400D03*
D11*
X63074166Y-141048382D03*
X70074166Y-142098382D03*
%TD*%
D10*
%TO.C,K41*%
X198432800Y-136320400D03*
D11*
X194032800Y-141020400D03*
X201032800Y-142070400D03*
%TD*%
D10*
%TO.C,K34*%
X174556800Y-79170400D03*
D11*
X170156800Y-83870400D03*
X177156800Y-84920400D03*
%TD*%
D10*
%TO.C,K13*%
X98356800Y-79170400D03*
D11*
X93956800Y-83870400D03*
X100956800Y-84920400D03*
%TD*%
D10*
%TO.C,K58*%
X279204800Y-98220400D03*
D11*
X274804800Y-102920400D03*
X281804800Y-103970400D03*
%TD*%
D10*
%TO.C,K52*%
X250756800Y-79170400D03*
D11*
X246356800Y-83870400D03*
X253356800Y-84920400D03*
%TD*%
D10*
%TO.C,K18*%
X117406800Y-79170400D03*
D11*
X113006800Y-83870400D03*
X120006800Y-84920400D03*
%TD*%
D10*
%TO.C,K88*%
X459658800Y-79072000D03*
D11*
X455258800Y-83772000D03*
X462258800Y-84822000D03*
%TD*%
D10*
%TO.C,K51*%
X233738800Y-50513600D03*
D11*
X238138800Y-45813600D03*
X231138800Y-44763600D03*
%TD*%
D10*
%TO.C,K12*%
X90736800Y-155370400D03*
D11*
X86336800Y-160070400D03*
X93336800Y-161120400D03*
%TD*%
D10*
%TO.C,K2*%
X55528800Y-79170400D03*
D11*
X51128800Y-83870400D03*
X58128800Y-84920400D03*
%TD*%
D10*
%TO.C,K25*%
X131630800Y-117270400D03*
D11*
X127230800Y-121970400D03*
X134230800Y-123020400D03*
%TD*%
D10*
%TO.C,K17*%
X105722800Y-50513600D03*
D11*
X110122800Y-45813600D03*
X103122800Y-44763600D03*
%TD*%
D10*
%TO.C,K49*%
X226880800Y-117270400D03*
D11*
X222480800Y-121970400D03*
X229480800Y-123020400D03*
%TD*%
D10*
%TO.C,K24*%
X145854800Y-98220400D03*
D11*
X141454800Y-102920400D03*
X148454800Y-103970400D03*
%TD*%
D10*
%TO.C,K43*%
X212656800Y-79170400D03*
D11*
X208256800Y-83870400D03*
X215256800Y-84920400D03*
%TD*%
D10*
%TO.C,K47*%
X231706800Y-79170400D03*
D11*
X227306800Y-83870400D03*
X234306800Y-84920400D03*
%TD*%
D10*
%TO.C,K48*%
X241104800Y-98220400D03*
D11*
X236704800Y-102920400D03*
X243704800Y-103970400D03*
%TD*%
D10*
%TO.C,K69*%
X307906800Y-79170400D03*
D11*
X303506800Y-83870400D03*
X310506800Y-84920400D03*
%TD*%
D10*
%TO.C,K85*%
X440608800Y-98122000D03*
D11*
X436208800Y-102822000D03*
X443208800Y-103872000D03*
%TD*%
D10*
%TO.C,K35*%
X183954800Y-98220400D03*
D11*
X179554800Y-102920400D03*
X186554800Y-103970400D03*
%TD*%
D10*
%TO.C,K40*%
X188780800Y-117270400D03*
D11*
X184380800Y-121970400D03*
X191380800Y-123020400D03*
%TD*%
D10*
%TO.C,K37*%
X179382800Y-136320400D03*
D11*
X174982800Y-141020400D03*
X181982800Y-142070400D03*
%TD*%
D10*
%TO.C,K20*%
X112580800Y-117270400D03*
D11*
X108180800Y-121970400D03*
X115180800Y-123020400D03*
%TD*%
D10*
%TO.C,K75*%
X373880000Y-117219600D03*
D11*
X369480000Y-121919600D03*
X376480000Y-122969600D03*
%TD*%
D10*
%TO.C,K67*%
X309938800Y-155370400D03*
D11*
X305538800Y-160070400D03*
X312538800Y-161120400D03*
%TD*%
D10*
%TO.C,K7*%
X79306800Y-79170400D03*
D11*
X74906800Y-83870400D03*
X81906800Y-84920400D03*
%TD*%
D10*
%TO.C,K76*%
X373880000Y-136269600D03*
D11*
X369480000Y-140969600D03*
X376480000Y-142019600D03*
%TD*%
D10*
%TO.C,K9*%
X74480800Y-117270400D03*
D11*
X70080800Y-121970400D03*
X77080800Y-123020400D03*
%TD*%
D10*
%TO.C,K77*%
X388154000Y-79105600D03*
D11*
X383754000Y-83805600D03*
X390754000Y-84855600D03*
%TD*%
D10*
%TO.C,K31*%
X160332800Y-136320400D03*
D11*
X155932800Y-141020400D03*
X162932800Y-142070400D03*
%TD*%
D10*
%TO.C,K19*%
X126804800Y-98220400D03*
D11*
X122404800Y-102920400D03*
X129404800Y-103970400D03*
%TD*%
D10*
%TO.C,K73*%
X354830000Y-136269600D03*
D11*
X350430000Y-140969600D03*
X357430000Y-142019600D03*
%TD*%
D10*
%TO.C,K32*%
X188400050Y-155370400D03*
D11*
X184000050Y-160070400D03*
X191000050Y-161120400D03*
%TD*%
D10*
%TO.C,K86*%
X440608800Y-117172000D03*
D11*
X436208800Y-121872000D03*
X443208800Y-122922000D03*
%TD*%
D10*
%TO.C,K90*%
X459658800Y-117172000D03*
D11*
X455258800Y-121872000D03*
X462258800Y-122922000D03*
%TD*%
D10*
%TO.C,K57*%
X269806800Y-79170400D03*
D11*
X265406800Y-83870400D03*
X272406800Y-84920400D03*
%TD*%
D10*
%TO.C,K59*%
X265234800Y-117270400D03*
D11*
X260834800Y-121970400D03*
X267834800Y-123020400D03*
%TD*%
D10*
%TO.C,K15*%
X93530800Y-117270400D03*
D11*
X89130800Y-121970400D03*
X96130800Y-123020400D03*
%TD*%
D10*
%TO.C,K33*%
X177350800Y-50513600D03*
D11*
X181750800Y-45813600D03*
X174750800Y-44763600D03*
%TD*%
D10*
%TO.C,K29*%
X164904800Y-98299200D03*
D11*
X160504800Y-102999200D03*
X167504800Y-104049200D03*
%TD*%
D10*
%TO.C,K16*%
X103182800Y-136320400D03*
D11*
X98782800Y-141020400D03*
X105782800Y-142070400D03*
%TD*%
D10*
%TO.C,K93*%
X478708800Y-79072000D03*
D11*
X474308800Y-83772000D03*
X481308800Y-84822000D03*
%TD*%
D10*
%TO.C,K54*%
X245930800Y-117270400D03*
D11*
X241530800Y-121970400D03*
X248530800Y-123020400D03*
%TD*%
D10*
%TO.C,K28*%
X155506800Y-79170400D03*
D11*
X151106800Y-83870400D03*
X158106800Y-84920400D03*
%TD*%
D10*
%TO.C,K27*%
X153474800Y-50513600D03*
D11*
X157874800Y-45813600D03*
X150874800Y-44763600D03*
%TD*%
D10*
%TO.C,K11*%
X81907200Y-50398400D03*
D11*
X86307200Y-45698400D03*
X79307200Y-44648400D03*
%TD*%
D10*
%TO.C,K55*%
X255576800Y-136342400D03*
D11*
X251176800Y-141042400D03*
X258176800Y-142092400D03*
%TD*%
D10*
%TO.C,K4*%
X53144800Y-117270400D03*
D11*
X48744800Y-121970400D03*
X55744800Y-123020400D03*
%TD*%
D10*
%TO.C,K92*%
X459658800Y-155370400D03*
D11*
X455258800Y-160070400D03*
X462258800Y-161120400D03*
%TD*%
D10*
%TO.C,K95*%
X478708800Y-117172000D03*
D11*
X474308800Y-121872000D03*
X481308800Y-122922000D03*
%TD*%
D10*
%TO.C,K65*%
X284284800Y-117270400D03*
D11*
X279884800Y-121970400D03*
X286884800Y-123020400D03*
%TD*%
D10*
%TO.C,K21*%
X122232800Y-136320400D03*
D11*
X117832800Y-141020400D03*
X124832800Y-142070400D03*
%TD*%
D10*
%TO.C,K74*%
X359558000Y-79105600D03*
D11*
X355158000Y-83805600D03*
X362158000Y-84855600D03*
%TD*%
D10*
%TO.C,K39*%
X203004800Y-98220400D03*
D11*
X198604800Y-102920400D03*
X205604800Y-103970400D03*
%TD*%
D10*
%TO.C,K23*%
X136456800Y-79170400D03*
D11*
X132056800Y-83870400D03*
X139056800Y-84920400D03*
%TD*%
D10*
%TO.C,K82*%
X421558800Y-136222000D03*
D11*
X417158800Y-140922000D03*
X424158800Y-141972000D03*
%TD*%
D10*
%TO.C,K87*%
X440608800Y-136222000D03*
D11*
X436208800Y-140922000D03*
X443208800Y-141972000D03*
%TD*%
D10*
%TO.C,K61*%
X286062800Y-155370400D03*
D11*
X281662800Y-160070400D03*
X288662800Y-161120400D03*
%TD*%
D10*
%TO.C,K66*%
X310446800Y-136320400D03*
D11*
X306046800Y-141020400D03*
X313046800Y-142070400D03*
%TD*%
D10*
%TO.C,K78*%
X392930000Y-136269600D03*
D11*
X388530000Y-140969600D03*
X395530000Y-142019600D03*
%TD*%
D10*
%TO.C,K80*%
X421558800Y-98122000D03*
D11*
X417158800Y-102822000D03*
X424158800Y-103872000D03*
%TD*%
D10*
%TO.C,K63*%
X288856800Y-79170400D03*
D11*
X284456800Y-83870400D03*
X291456800Y-84920400D03*
%TD*%
D10*
%TO.C,K22*%
X129598800Y-50541600D03*
D11*
X133998800Y-45841600D03*
X126998800Y-44791600D03*
%TD*%
D10*
%TO.C,K38*%
X193606800Y-79170400D03*
D11*
X189206800Y-83870400D03*
X196206800Y-84920400D03*
%TD*%
D10*
%TO.C,K14*%
X107754800Y-98220400D03*
D11*
X103354800Y-102920400D03*
X110354800Y-103970400D03*
%TD*%
D10*
%TO.C,K96*%
X478708800Y-145774000D03*
D11*
X483408800Y-150174000D03*
X484458800Y-143174000D03*
%TD*%
D10*
%TO.C,K83*%
X431210800Y-155370400D03*
D11*
X426810800Y-160070400D03*
X433810800Y-161120400D03*
%TD*%
D10*
%TO.C,K36*%
X169730800Y-117270400D03*
D11*
X165330800Y-121970400D03*
X172330800Y-123020400D03*
%TD*%
D10*
%TO.C,K42*%
X209856800Y-50513600D03*
D11*
X214256800Y-45813600D03*
X207256800Y-44763600D03*
%TD*%
D10*
%TO.C,K44*%
X222054800Y-98220400D03*
D11*
X217654800Y-102920400D03*
X224654800Y-103970400D03*
%TD*%
D10*
%TO.C,K84*%
X440608800Y-79072000D03*
D11*
X436208800Y-83772000D03*
X443208800Y-84822000D03*
%TD*%
D10*
%TO.C,K94*%
X478708800Y-98122000D03*
D11*
X474308800Y-102822000D03*
X481308800Y-103872000D03*
%TD*%
D10*
%TO.C,K50*%
X236536800Y-136322400D03*
D11*
X232136800Y-141022400D03*
X239136800Y-142072400D03*
%TD*%
D10*
%TO.C,K46*%
X217482800Y-136320400D03*
D11*
X213082800Y-141020400D03*
X220082800Y-142070400D03*
%TD*%
D10*
%TO.C,K89*%
X459658800Y-98122000D03*
D11*
X455258800Y-102822000D03*
X462258800Y-103872000D03*
%TD*%
D10*
%TO.C,K62*%
X281490800Y-50513600D03*
D11*
X285890800Y-45813600D03*
X278890800Y-44763600D03*
%TD*%
D10*
%TO.C,K45*%
X207830800Y-117270400D03*
D11*
X203430800Y-121970400D03*
X210430800Y-123020400D03*
%TD*%
D10*
%TO.C,K91*%
X459658800Y-136222000D03*
D11*
X455258800Y-140922000D03*
X462258800Y-141972000D03*
%TD*%
D10*
%TO.C,K30*%
X150680800Y-117270400D03*
D11*
X146280800Y-121970400D03*
X153280800Y-123020400D03*
%TD*%
D10*
%TO.C,K6*%
X66860800Y-155370400D03*
D11*
X62460800Y-160070400D03*
X69460800Y-161120400D03*
%TD*%
D10*
%TO.C,K79*%
X421558800Y-79072000D03*
D11*
X417158800Y-83772000D03*
X424158800Y-84822000D03*
%TD*%
D10*
%TO.C,K1*%
X50858800Y-50611600D03*
D11*
X55258800Y-45911600D03*
X48258800Y-44861600D03*
%TD*%
D10*
%TO.C,K71*%
X315036829Y-117297436D03*
D11*
X310611829Y-121972436D03*
X317611829Y-123022436D03*
%TD*%
D12*
%TO.C,J2*%
X440300000Y-43000000D03*
D13*
X437760000Y-43000000D03*
X435220000Y-43000000D03*
X432680000Y-43000000D03*
%TD*%
D10*
%TO.C,K72*%
X326956800Y-79170400D03*
D11*
X322556800Y-83870400D03*
X329556800Y-84920400D03*
%TD*%
D10*
%TO.C,K3*%
X60256800Y-98220400D03*
D11*
X55856800Y-102920400D03*
X62856800Y-103970400D03*
%TD*%
D14*
%TO.C,J1*%
X174000000Y-35000000D03*
X175250000Y-37500000D03*
X176500000Y-35000000D03*
X177750000Y-37500000D03*
X179000000Y-35000000D03*
X180250000Y-37500000D03*
X181500000Y-35000000D03*
X182750000Y-37500000D03*
X184000000Y-35000000D03*
X185250000Y-37500000D03*
X186500000Y-35000000D03*
X187750000Y-37500000D03*
X189000000Y-35000000D03*
X190250000Y-37500000D03*
X191500000Y-35000000D03*
X192750000Y-37500000D03*
X194000000Y-35000000D03*
X195250000Y-37500000D03*
X196500000Y-35000000D03*
X197750000Y-37500000D03*
X199000000Y-35000000D03*
X200250000Y-37500000D03*
X201500000Y-35000000D03*
X202750000Y-37500000D03*
X204000000Y-35000000D03*
X205250000Y-37500000D03*
X206500000Y-35000000D03*
X207750000Y-37500000D03*
X209000000Y-35000000D03*
X210250000Y-37500000D03*
X211500000Y-35000000D03*
X212750000Y-37500000D03*
%TD*%
M02*
