M48
; DRILL file {KiCad 9.0.8} date 2026-03-30T08:35:53-0400
; FORMAT={-:-/ absolute / metric / decimal}
; #@! TF.CreationDate,2026-03-30T08:35:53-04:00
; #@! TF.GenerationSoftware,Kicad,Pcbnew,9.0.8
; #@! TF.FileFunction,NonPlated,1,2,NPTH
FMAT,2
METRIC
; #@! TA.AperFunction,NonPlated,NPTH,ComponentDrill
T1C5.100
%
G90
G05
T1
X50.859Y-50.612
X53.145Y-117.27
X55.529Y-79.17
X60.257Y-98.22
X66.861Y-155.37
X67.474Y-136.32
X74.481Y-117.27
X79.307Y-79.17
X81.907Y-50.398
X88.705Y-98.22
X90.737Y-155.37
X93.531Y-117.27
X98.357Y-79.17
X103.183Y-136.32
X105.723Y-50.514
X107.755Y-98.22
X112.581Y-117.27
X117.407Y-79.17
X122.233Y-136.32
X126.805Y-98.22
X129.599Y-50.542
X131.631Y-117.27
X136.457Y-79.17
X141.283Y-136.32
X145.855Y-98.22
X150.681Y-117.27
X153.475Y-50.514
X155.507Y-79.17
X160.333Y-136.32
X164.905Y-98.299
X169.731Y-117.27
X174.557Y-79.17
X177.351Y-50.514
X179.383Y-136.32
X183.955Y-98.22
X188.4Y-155.37
X188.781Y-117.27
X193.607Y-79.17
X198.433Y-136.32
X203.005Y-98.22
X207.831Y-117.27
X209.857Y-50.514
X212.657Y-79.17
X217.483Y-136.32
X222.055Y-98.22
X226.881Y-117.27
X231.707Y-79.17
X233.739Y-50.514
X236.537Y-136.322
X241.105Y-98.22
X245.931Y-117.27
X250.757Y-79.17
X255.577Y-136.342
X257.615Y-50.514
X260.155Y-98.22
X265.235Y-117.27
X269.807Y-79.17
X274.633Y-136.32
X279.205Y-98.22
X281.491Y-50.514
X284.285Y-117.27
X286.063Y-155.37
X288.857Y-79.17
X298.255Y-98.22
X305.367Y-50.514
X307.907Y-79.17
X309.939Y-155.37
X310.447Y-136.32
X315.037Y-117.297
X326.957Y-79.17
X354.83Y-136.27
X359.558Y-79.106
X373.88Y-117.22
X373.88Y-136.27
X388.154Y-79.106
X392.93Y-136.27
X421.559Y-79.072
X421.559Y-98.122
X421.559Y-117.172
X421.559Y-136.222
X431.211Y-155.37
X440.609Y-79.072
X440.609Y-98.122
X440.609Y-117.172
X440.609Y-136.222
X459.659Y-79.072
X459.659Y-98.122
X459.659Y-117.172
X459.659Y-136.222
X459.659Y-155.37
X478.709Y-79.072
X478.709Y-98.122
X478.709Y-117.172
X478.709Y-145.774
M30
