%TF.GenerationSoftware,KiCad,Pcbnew,9.0.8*%
%TF.CreationDate,2026-03-30T08:35:55-04:00*%
%TF.ProjectId,A1200KBv2,41313230-304b-4427-9632-2e6b69636164,rev?*%
%TF.SameCoordinates,Original*%
%TF.FileFunction,Copper,L2,Bot*%
%TF.FilePolarity,Positive*%
%FSLAX46Y46*%
G04 Gerber Fmt 4.6, Leading zero omitted, Abs format (unit mm)*
G04 Created by KiCad (PCBNEW 9.0.8) date 2026-03-30 08:35:55*
%MOMM*%
%LPD*%
G01*
G04 APERTURE LIST*
%TA.AperFunction,ComponentPad*%
%ADD10C,2.300000*%
%TD*%
%TA.AperFunction,ComponentPad*%
%ADD11R,1.700000X1.700000*%
%TD*%
%TA.AperFunction,ComponentPad*%
%ADD12O,1.700000X1.700000*%
%TD*%
%TA.AperFunction,ComponentPad*%
%ADD13C,1.524000*%
%TD*%
%TA.AperFunction,ViaPad*%
%ADD14C,1.000000*%
%TD*%
%TA.AperFunction,ViaPad*%
%ADD15C,0.600000*%
%TD*%
%TA.AperFunction,Conductor*%
%ADD16C,0.300000*%
%TD*%
G04 APERTURE END LIST*
D10*
%TO.P,K60,1,COL*%
%TO.N,/25*%
X270232800Y-141020400D03*
%TO.P,K60,2,ROW*%
%TO.N,/3*%
X277232800Y-142070400D03*
%TD*%
%TO.P,K8,1,COL*%
%TO.N,/16*%
X84304800Y-102920400D03*
%TO.P,K8,2,ROW*%
%TO.N,/1*%
X91304800Y-103970400D03*
%TD*%
%TO.P,K56,1,COL*%
%TO.N,/26*%
X262014800Y-45813600D03*
%TO.P,K56,2,ROW*%
%TO.N,/7*%
X255014800Y-44763600D03*
%TD*%
%TO.P,K64,1,COL*%
%TO.N,/27*%
X293854800Y-102920400D03*
%TO.P,K64,2,ROW*%
%TO.N,/1*%
X300854800Y-103970400D03*
%TD*%
%TO.P,K68,1,COL*%
%TO.N,/28*%
X309766800Y-45813600D03*
%TO.P,K68,2,ROW*%
%TO.N,/7*%
X302766800Y-44763600D03*
%TD*%
%TO.P,K53,1,COL*%
%TO.N,/25*%
X255754800Y-102920400D03*
%TO.P,K53,2,ROW*%
%TO.N,/1*%
X262754800Y-103970400D03*
%TD*%
%TO.P,K81,1,COL*%
%TO.N,/26*%
X417158800Y-121872000D03*
%TO.P,K81,2,ROW*%
%TO.N,/4*%
X424158800Y-122922000D03*
%TD*%
%TO.P,K26,1,COL*%
%TO.N,/18*%
X136882800Y-141020400D03*
%TO.P,K26,2,ROW*%
%TO.N,/3*%
X143882800Y-142070400D03*
%TD*%
%TO.P,K5,1,COL*%
%TO.N,/30*%
X63074166Y-141048382D03*
%TO.P,K5,2,ROW*%
%TO.N,/12*%
X70074166Y-142098382D03*
%TD*%
%TO.P,K41,1,COL*%
%TO.N,/21*%
X194032800Y-141020400D03*
%TO.P,K41,2,ROW*%
%TO.N,/3*%
X201032800Y-142070400D03*
%TD*%
%TO.P,K34,1,COL*%
%TO.N,/21*%
X170156800Y-83870400D03*
%TO.P,K34,2,ROW*%
%TO.N,/5*%
X177156800Y-84920400D03*
%TD*%
%TO.P,K13,1,COL*%
%TO.N,/17*%
X93956800Y-83870400D03*
%TO.P,K13,2,ROW*%
%TO.N,/5*%
X100956800Y-84920400D03*
%TD*%
%TO.P,K58,1,COL*%
%TO.N,/26*%
X274804800Y-102920400D03*
%TO.P,K58,2,ROW*%
%TO.N,/1*%
X281804800Y-103970400D03*
%TD*%
%TO.P,K52,1,COL*%
%TO.N,/25*%
X246356800Y-83870400D03*
%TO.P,K52,2,ROW*%
%TO.N,/5*%
X253356800Y-84920400D03*
%TD*%
%TO.P,K18,1,COL*%
%TO.N,/18*%
X113006800Y-83870400D03*
%TO.P,K18,2,ROW*%
%TO.N,/5*%
X120006800Y-84920400D03*
%TD*%
%TO.P,K88,1,COL*%
%TO.N,/24*%
X455258800Y-83772000D03*
%TO.P,K88,2,ROW*%
%TO.N,/7*%
X462258800Y-84822000D03*
%TD*%
%TO.P,K51,1,COL*%
%TO.N,/25*%
X238138800Y-45813600D03*
%TO.P,K51,2,ROW*%
%TO.N,/7*%
X231138800Y-44763600D03*
%TD*%
%TO.P,K12,1,COL*%
%TO.N,/30*%
X86336800Y-160070400D03*
%TO.P,K12,2,ROW*%
%TO.N,/14*%
X93336800Y-161120400D03*
%TD*%
%TO.P,K2,1,COL*%
%TO.N,/15*%
X51128800Y-83870400D03*
%TO.P,K2,2,ROW*%
%TO.N,/5*%
X58128800Y-84920400D03*
%TD*%
%TO.P,K25,1,COL*%
%TO.N,/18*%
X127230800Y-121970400D03*
%TO.P,K25,2,ROW*%
%TO.N,/2*%
X134230800Y-123020400D03*
%TD*%
%TO.P,K17,1,COL*%
%TO.N,/18*%
X110122800Y-45813600D03*
%TO.P,K17,2,ROW*%
%TO.N,/7*%
X103122800Y-44763600D03*
%TD*%
%TO.P,K49,1,COL*%
%TO.N,/23*%
X222480800Y-121970400D03*
%TO.P,K49,2,ROW*%
%TO.N,/2*%
X229480800Y-123020400D03*
%TD*%
%TO.P,K24,1,COL*%
%TO.N,/19*%
X141454800Y-102920400D03*
%TO.P,K24,2,ROW*%
%TO.N,/1*%
X148454800Y-103970400D03*
%TD*%
%TO.P,K43,1,COL*%
%TO.N,/23*%
X208256800Y-83870400D03*
%TO.P,K43,2,ROW*%
%TO.N,/5*%
X215256800Y-84920400D03*
%TD*%
%TO.P,K47,1,COL*%
%TO.N,/24*%
X227306800Y-83870400D03*
%TO.P,K47,2,ROW*%
%TO.N,/5*%
X234306800Y-84920400D03*
%TD*%
%TO.P,K48,1,COL*%
%TO.N,/24*%
X236704800Y-102920400D03*
%TO.P,K48,2,ROW*%
%TO.N,/1*%
X243704800Y-103970400D03*
%TD*%
%TO.P,K69,1,COL*%
%TO.N,/28*%
X303506800Y-83870400D03*
%TO.P,K69,2,ROW*%
%TO.N,/5*%
X310506800Y-84920400D03*
%TD*%
%TO.P,K85,1,COL*%
%TO.N,/21*%
X436208800Y-102822000D03*
%TO.P,K85,2,ROW*%
%TO.N,/4*%
X443208800Y-103872000D03*
%TD*%
%TO.P,K35,1,COL*%
%TO.N,/21*%
X179554800Y-102920400D03*
%TO.P,K35,2,ROW*%
%TO.N,/1*%
X186554800Y-103970400D03*
%TD*%
%TO.P,K40,1,COL*%
%TO.N,/21*%
X184380800Y-121970400D03*
%TO.P,K40,2,ROW*%
%TO.N,/2*%
X191380800Y-123020400D03*
%TD*%
%TO.P,K37,1,COL*%
%TO.N,/20*%
X174982800Y-141020400D03*
%TO.P,K37,2,ROW*%
%TO.N,/3*%
X181982800Y-142070400D03*
%TD*%
%TO.P,K20,1,COL*%
%TO.N,/17*%
X108180800Y-121970400D03*
%TO.P,K20,2,ROW*%
%TO.N,/2*%
X115180800Y-123020400D03*
%TD*%
%TO.P,K75,1,COL*%
%TO.N,/5*%
X369480000Y-121919600D03*
%TO.P,K75,2,ROW*%
%TO.N,/29*%
X376480000Y-122969600D03*
%TD*%
%TO.P,K67,1,COL*%
%TO.N,/8*%
X305538800Y-160070400D03*
%TO.P,K67,2,ROW*%
%TO.N,/30*%
X312538800Y-161120400D03*
%TD*%
%TO.P,K7,1,COL*%
%TO.N,/16*%
X74906800Y-83870400D03*
%TO.P,K7,2,ROW*%
%TO.N,/5*%
X81906800Y-84920400D03*
%TD*%
%TO.P,K76,1,COL*%
%TO.N,/29*%
X369480000Y-140969600D03*
%TO.P,K76,2,ROW*%
%TO.N,/3*%
X376480000Y-142019600D03*
%TD*%
%TO.P,K9,1,COL*%
%TO.N,/15*%
X70080800Y-121970400D03*
%TO.P,K9,2,ROW*%
%TO.N,/2*%
X77080800Y-123020400D03*
%TD*%
%TO.P,K77,1,COL*%
%TO.N,/29*%
X383754000Y-83805600D03*
%TO.P,K77,2,ROW*%
%TO.N,/7*%
X390754000Y-84855600D03*
%TD*%
%TO.P,K31,1,COL*%
%TO.N,/19*%
X155932800Y-141020400D03*
%TO.P,K31,2,ROW*%
%TO.N,/3*%
X162932800Y-142070400D03*
%TD*%
%TO.P,K19,1,COL*%
%TO.N,/18*%
X122404800Y-102920400D03*
%TO.P,K19,2,ROW*%
%TO.N,/1*%
X129404800Y-103970400D03*
%TD*%
%TO.P,K73,1,COL*%
%TO.N,/29*%
X350430000Y-140969600D03*
%TO.P,K73,2,ROW*%
%TO.N,/1*%
X357430000Y-142019600D03*
%TD*%
%TO.P,K32,1,COL*%
%TO.N,/27*%
X184000050Y-160070400D03*
%TO.P,K32,2,ROW*%
%TO.N,/3*%
X191000050Y-161120400D03*
%TD*%
%TO.P,K86,1,COL*%
%TO.N,/22*%
X436208800Y-121872000D03*
%TO.P,K86,2,ROW*%
%TO.N,/4*%
X443208800Y-122922000D03*
%TD*%
%TO.P,K90,1,COL*%
%TO.N,/18*%
X455258800Y-121872000D03*
%TO.P,K90,2,ROW*%
%TO.N,/4*%
X462258800Y-122922000D03*
%TD*%
%TO.P,K57,1,COL*%
%TO.N,/26*%
X265406800Y-83870400D03*
%TO.P,K57,2,ROW*%
%TO.N,/5*%
X272406800Y-84920400D03*
%TD*%
%TO.P,K59,1,COL*%
%TO.N,/25*%
X260834800Y-121970400D03*
%TO.P,K59,2,ROW*%
%TO.N,/2*%
X267834800Y-123020400D03*
%TD*%
%TO.P,K15,1,COL*%
%TO.N,/16*%
X89130800Y-121970400D03*
%TO.P,K15,2,ROW*%
%TO.N,/2*%
X96130800Y-123020400D03*
%TD*%
%TO.P,K33,1,COL*%
%TO.N,/21*%
X181750800Y-45813600D03*
%TO.P,K33,2,ROW*%
%TO.N,/7*%
X174750800Y-44763600D03*
%TD*%
%TO.P,K29,1,COL*%
%TO.N,/20*%
X160504800Y-102999200D03*
%TO.P,K29,2,ROW*%
%TO.N,/1*%
X167504800Y-104049200D03*
%TD*%
%TO.P,K16,1,COL*%
%TO.N,/16*%
X98782800Y-141020400D03*
%TO.P,K16,2,ROW*%
%TO.N,/3*%
X105782800Y-142070400D03*
%TD*%
%TO.P,K93,1,COL*%
%TO.N,/15*%
X474308800Y-83772000D03*
%TO.P,K93,2,ROW*%
%TO.N,/4*%
X481308800Y-84822000D03*
%TD*%
%TO.P,K54,1,COL*%
%TO.N,/24*%
X241530800Y-121970400D03*
%TO.P,K54,2,ROW*%
%TO.N,/2*%
X248530800Y-123020400D03*
%TD*%
%TO.P,K28,1,COL*%
%TO.N,/20*%
X151106800Y-83870400D03*
%TO.P,K28,2,ROW*%
%TO.N,/5*%
X158106800Y-84920400D03*
%TD*%
%TO.P,K27,1,COL*%
%TO.N,/20*%
X157874800Y-45813600D03*
%TO.P,K27,2,ROW*%
%TO.N,/7*%
X150874800Y-44763600D03*
%TD*%
%TO.P,K11,1,COL*%
%TO.N,/17*%
X86307200Y-45698400D03*
%TO.P,K11,2,ROW*%
%TO.N,/7*%
X79307200Y-44648400D03*
%TD*%
%TO.P,K55,1,COL*%
%TO.N,/24*%
X251176800Y-141042400D03*
%TO.P,K55,2,ROW*%
%TO.N,/3*%
X258176800Y-142092400D03*
%TD*%
%TO.P,K4,1,COL*%
%TO.N,/30*%
X48744800Y-121970400D03*
%TO.P,K4,2,ROW*%
%TO.N,/11*%
X55744800Y-123020400D03*
%TD*%
%TO.P,K92,1,COL*%
%TO.N,/20*%
X455258800Y-160070400D03*
%TO.P,K92,2,ROW*%
%TO.N,/4*%
X462258800Y-161120400D03*
%TD*%
%TO.P,K95,1,COL*%
%TO.N,/16*%
X474308800Y-121872000D03*
%TO.P,K95,2,ROW*%
%TO.N,/4*%
X481308800Y-122922000D03*
%TD*%
%TO.P,K65,1,COL*%
%TO.N,/26*%
X279884800Y-121970400D03*
%TO.P,K65,2,ROW*%
%TO.N,/2*%
X286884800Y-123020400D03*
%TD*%
%TO.P,K21,1,COL*%
%TO.N,/17*%
X117832800Y-141020400D03*
%TO.P,K21,2,ROW*%
%TO.N,/3*%
X124832800Y-142070400D03*
%TD*%
%TO.P,K74,1,COL*%
%TO.N,/28*%
X355158000Y-83805600D03*
%TO.P,K74,2,ROW*%
%TO.N,/2*%
X362158000Y-84855600D03*
%TD*%
%TO.P,K39,1,COL*%
%TO.N,/22*%
X198604800Y-102920400D03*
%TO.P,K39,2,ROW*%
%TO.N,/1*%
X205604800Y-103970400D03*
%TD*%
%TO.P,K23,1,COL*%
%TO.N,/19*%
X132056800Y-83870400D03*
%TO.P,K23,2,ROW*%
%TO.N,/5*%
X139056800Y-84920400D03*
%TD*%
%TO.P,K82,1,COL*%
%TO.N,/27*%
X417158800Y-140922000D03*
%TO.P,K82,2,ROW*%
%TO.N,/4*%
X424158800Y-141972000D03*
%TD*%
%TO.P,K87,1,COL*%
%TO.N,/23*%
X436208800Y-140922000D03*
%TO.P,K87,2,ROW*%
%TO.N,/4*%
X443208800Y-141972000D03*
%TD*%
%TO.P,K61,1,COL*%
%TO.N,/30*%
X281662800Y-160070400D03*
%TO.P,K61,2,ROW*%
%TO.N,/10*%
X288662800Y-161120400D03*
%TD*%
%TO.P,K66,1,COL*%
%TO.N,/6*%
X306046800Y-141020400D03*
%TO.P,K66,2,ROW*%
%TO.N,/30*%
X313046800Y-142070400D03*
%TD*%
%TO.P,K78,1,COL*%
%TO.N,/29*%
X388530000Y-140969600D03*
%TO.P,K78,2,ROW*%
%TO.N,/2*%
X395530000Y-142019600D03*
%TD*%
%TO.P,K80,1,COL*%
%TO.N,/25*%
X417158800Y-102822000D03*
%TO.P,K80,2,ROW*%
%TO.N,/4*%
X424158800Y-103872000D03*
%TD*%
%TO.P,K63,1,COL*%
%TO.N,/27*%
X284456800Y-83870400D03*
%TO.P,K63,2,ROW*%
%TO.N,/5*%
X291456800Y-84920400D03*
%TD*%
%TO.P,K22,1,COL*%
%TO.N,/19*%
X133998800Y-45841600D03*
%TO.P,K22,2,ROW*%
%TO.N,/7*%
X126998800Y-44791600D03*
%TD*%
%TO.P,K38,1,COL*%
%TO.N,/22*%
X189206800Y-83870400D03*
%TO.P,K38,2,ROW*%
%TO.N,/5*%
X196206800Y-84920400D03*
%TD*%
%TO.P,K14,1,COL*%
%TO.N,/17*%
X103354800Y-102920400D03*
%TO.P,K14,2,ROW*%
%TO.N,/1*%
X110354800Y-103970400D03*
%TD*%
%TO.P,K96,1,COL*%
%TO.N,/24*%
X483408800Y-150174000D03*
%TO.P,K96,2,ROW*%
%TO.N,/4*%
X484458800Y-143174000D03*
%TD*%
%TO.P,K83,1,COL*%
%TO.N,/28*%
X426810800Y-160070400D03*
%TO.P,K83,2,ROW*%
%TO.N,/4*%
X433810800Y-161120400D03*
%TD*%
%TO.P,K36,1,COL*%
%TO.N,/20*%
X165330800Y-121970400D03*
%TO.P,K36,2,ROW*%
%TO.N,/2*%
X172330800Y-123020400D03*
%TD*%
%TO.P,K42,1,COL*%
%TO.N,/23*%
X214256800Y-45813600D03*
%TO.P,K42,2,ROW*%
%TO.N,/7*%
X207256800Y-44763600D03*
%TD*%
%TO.P,K44,1,COL*%
%TO.N,/23*%
X217654800Y-102920400D03*
%TO.P,K44,2,ROW*%
%TO.N,/1*%
X224654800Y-103970400D03*
%TD*%
%TO.P,K84,1,COL*%
%TO.N,/22*%
X436208800Y-83772000D03*
%TO.P,K84,2,ROW*%
%TO.N,/7*%
X443208800Y-84822000D03*
%TD*%
%TO.P,K94,1,COL*%
%TO.N,/29*%
X474308800Y-102822000D03*
%TO.P,K94,2,ROW*%
%TO.N,/4*%
X481308800Y-103872000D03*
%TD*%
%TO.P,K50,1,COL*%
%TO.N,/23*%
X232136800Y-141022400D03*
%TO.P,K50,2,ROW*%
%TO.N,/3*%
X239136800Y-142072400D03*
%TD*%
%TO.P,K46,1,COL*%
%TO.N,/22*%
X213082800Y-141020400D03*
%TO.P,K46,2,ROW*%
%TO.N,/3*%
X220082800Y-142070400D03*
%TD*%
%TO.P,K89,1,COL*%
%TO.N,/17*%
X455258800Y-102822000D03*
%TO.P,K89,2,ROW*%
%TO.N,/4*%
X462258800Y-103872000D03*
%TD*%
%TO.P,K62,1,COL*%
%TO.N,/27*%
X285890800Y-45813600D03*
%TO.P,K62,2,ROW*%
%TO.N,/7*%
X278890800Y-44763600D03*
%TD*%
%TO.P,K45,1,COL*%
%TO.N,/22*%
X203430800Y-121970400D03*
%TO.P,K45,2,ROW*%
%TO.N,/2*%
X210430800Y-123020400D03*
%TD*%
%TO.P,K91,1,COL*%
%TO.N,/19*%
X455258800Y-140922000D03*
%TO.P,K91,2,ROW*%
%TO.N,/4*%
X462258800Y-141972000D03*
%TD*%
%TO.P,K30,1,COL*%
%TO.N,/19*%
X146280800Y-121970400D03*
%TO.P,K30,2,ROW*%
%TO.N,/2*%
X153280800Y-123020400D03*
%TD*%
%TO.P,K6,1,COL*%
%TO.N,/30*%
X62460800Y-160070400D03*
%TO.P,K6,2,ROW*%
%TO.N,/13*%
X69460800Y-161120400D03*
%TD*%
%TO.P,K79,1,COL*%
%TO.N,/16*%
X417158800Y-83772000D03*
%TO.P,K79,2,ROW*%
%TO.N,/7*%
X424158800Y-84822000D03*
%TD*%
%TO.P,K1,1,COL*%
%TO.N,/15*%
X55258800Y-45911600D03*
%TO.P,K1,2,ROW*%
%TO.N,/7*%
X48258800Y-44861600D03*
%TD*%
%TO.P,K71,1,COL*%
%TO.N,/1*%
X310611829Y-121972436D03*
%TO.P,K71,2,ROW*%
%TO.N,/28*%
X317611829Y-123022436D03*
%TD*%
D11*
%TO.P,J2,1,Pin_1*%
%TO.N,Net-(D8-K)*%
X440300000Y-43000000D03*
D12*
%TO.P,J2,2,Pin_2*%
%TO.N,/LEDs/PWRLED*%
X437760000Y-43000000D03*
%TO.P,J2,3,Pin_3*%
%TO.N,Net-(J2-Pin_3)*%
X435220000Y-43000000D03*
%TO.P,J2,4,Pin_4*%
%TO.N,Net-(J2-Pin_4)*%
X432680000Y-43000000D03*
%TD*%
D10*
%TO.P,K72,1,COL*%
%TO.N,/28*%
X322556800Y-83870400D03*
%TO.P,K72,2,ROW*%
%TO.N,/3*%
X329556800Y-84920400D03*
%TD*%
%TO.P,K3,1,COL*%
%TO.N,/15*%
X55856800Y-102920400D03*
%TO.P,K3,2,ROW*%
%TO.N,/1*%
X62856800Y-103970400D03*
%TD*%
D13*
%TO.P,J1,1,Pin_1*%
%TO.N,/1*%
X174000000Y-35000000D03*
%TO.P,J1,2,Pin_2*%
%TO.N,/2*%
X175250000Y-37500000D03*
%TO.P,J1,3,Pin_3*%
%TO.N,/3*%
X176500000Y-35000000D03*
%TO.P,J1,4,Pin_4*%
%TO.N,/4*%
X177750000Y-37500000D03*
%TO.P,J1,5,Pin_5*%
%TO.N,/5*%
X179000000Y-35000000D03*
%TO.P,J1,6,Pin_6*%
%TO.N,/6*%
X180250000Y-37500000D03*
%TO.P,J1,7,Pin_7*%
%TO.N,/7*%
X181500000Y-35000000D03*
%TO.P,J1,8,Pin_8*%
%TO.N,/8*%
X182750000Y-37500000D03*
%TO.P,J1,9,Pin_9*%
%TO.N,VCC*%
X184000000Y-35000000D03*
%TO.P,J1,10,Pin_10*%
%TO.N,/10*%
X185250000Y-37500000D03*
%TO.P,J1,11,Pin_11*%
%TO.N,/11*%
X186500000Y-35000000D03*
%TO.P,J1,12,Pin_12*%
%TO.N,/12*%
X187750000Y-37500000D03*
%TO.P,J1,13,Pin_13*%
%TO.N,/13*%
X189000000Y-35000000D03*
%TO.P,J1,14,Pin_14*%
%TO.N,/14*%
X190250000Y-37500000D03*
%TO.P,J1,15,Pin_15*%
%TO.N,/15*%
X191500000Y-35000000D03*
%TO.P,J1,16,Pin_16*%
%TO.N,/16*%
X192750000Y-37500000D03*
%TO.P,J1,17,Pin_17*%
%TO.N,/17*%
X194000000Y-35000000D03*
%TO.P,J1,18,Pin_18*%
%TO.N,/18*%
X195250000Y-37500000D03*
%TO.P,J1,19,Pin_19*%
%TO.N,/19*%
X196500000Y-35000000D03*
%TO.P,J1,20,Pin_20*%
%TO.N,/20*%
X197750000Y-37500000D03*
%TO.P,J1,21,Pin_21*%
%TO.N,/21*%
X199000000Y-35000000D03*
%TO.P,J1,22,Pin_22*%
%TO.N,/22*%
X200250000Y-37500000D03*
%TO.P,J1,23,Pin_23*%
%TO.N,/23*%
X201500000Y-35000000D03*
%TO.P,J1,24,Pin_24*%
%TO.N,/24*%
X202750000Y-37500000D03*
%TO.P,J1,25,Pin_25*%
%TO.N,/25*%
X204000000Y-35000000D03*
%TO.P,J1,26,Pin_26*%
%TO.N,/26*%
X205250000Y-37500000D03*
%TO.P,J1,27,Pin_27*%
%TO.N,/27*%
X206500000Y-35000000D03*
%TO.P,J1,28,Pin_28*%
%TO.N,/28*%
X207750000Y-37500000D03*
%TO.P,J1,29,Pin_29*%
%TO.N,/29*%
X209000000Y-35000000D03*
%TO.P,J1,30,Pin_30*%
%TO.N,/30*%
X210250000Y-37500000D03*
%TO.P,J1,31,Pin_31*%
%TO.N,{slash}CAPSLOCK*%
X211500000Y-35000000D03*
%TO.P,J1,32,Pin_32*%
%TO.N,unconnected-(J1-Pin_32-Pad32)*%
X212750000Y-37500000D03*
%TD*%
D14*
%TO.N,/7*%
X301014800Y-87503600D03*
X181500000Y-43500000D03*
%TO.N,/15*%
X192014800Y-89503600D03*
%TO.N,/5*%
X369500000Y-86000000D03*
%TO.N,/1*%
X309500000Y-151000000D03*
X357500000Y-146000000D03*
%TO.N,/30*%
X314500000Y-61000000D03*
X218000000Y-61000000D03*
%TO.N,/11*%
X186514800Y-55003600D03*
X48000000Y-55000000D03*
%TO.N,/12*%
X187500000Y-63000000D03*
X49500000Y-62000000D03*
%TO.N,/13*%
X50000000Y-56003600D03*
X189014800Y-56003600D03*
%TO.N,/16*%
X411014800Y-83503600D03*
X75000000Y-71500000D03*
X411014800Y-106503600D03*
X192500000Y-63000000D03*
X85014800Y-106503600D03*
%TO.N,/2*%
X287000000Y-139500000D03*
X362014800Y-127503600D03*
%TO.N,/3*%
X337014800Y-143503600D03*
X278014800Y-132503600D03*
%TO.N,/17*%
X199014800Y-90503600D03*
X94014800Y-90503600D03*
%TO.N,/14*%
X50000000Y-75000000D03*
X190000000Y-63000000D03*
%TO.N,/18*%
X110500000Y-73000000D03*
X195000000Y-63000000D03*
X123014800Y-107503600D03*
%TO.N,/19*%
X142014800Y-113503600D03*
X134014800Y-57003600D03*
X196514800Y-57003600D03*
%TO.N,/20*%
X155500000Y-74500000D03*
X166014800Y-132503600D03*
X197500000Y-63000000D03*
%TO.N,/27*%
X204000000Y-59000000D03*
X303000000Y-146000000D03*
X302014800Y-157503600D03*
X286000000Y-59000000D03*
%TO.N,/21*%
X200014800Y-91503600D03*
X199014800Y-46503600D03*
X176014800Y-91503600D03*
%TO.N,/22*%
X199014800Y-108503600D03*
X200014800Y-82503600D03*
%TO.N,/23*%
X223014800Y-125503600D03*
X201518400Y-48000000D03*
%TO.N,/24*%
X228014800Y-74503600D03*
X455500000Y-148500000D03*
X228014800Y-68503600D03*
X202500000Y-63000000D03*
%TO.N,/25*%
X203450000Y-54503600D03*
X247014800Y-93503600D03*
%TO.N,/26*%
X205000000Y-63000000D03*
X275014800Y-112503600D03*
X259500000Y-67503600D03*
%TO.N,/10*%
X282000000Y-156000000D03*
X210000000Y-146000000D03*
%TO.N,/6*%
X197000000Y-144500000D03*
X304014800Y-150503600D03*
%TO.N,/8*%
X198000000Y-145500000D03*
X305014800Y-151503600D03*
%TO.N,/28*%
X303500000Y-69000000D03*
X412014800Y-82503600D03*
X207000000Y-63000000D03*
X412014800Y-145503600D03*
%TO.N,/29*%
X384014800Y-89503600D03*
X311000000Y-60000000D03*
X313014800Y-87503600D03*
X214000000Y-60000000D03*
%TO.N,/4*%
X177014800Y-92503600D03*
%TO.N,Net-(D8-K)*%
X468000000Y-44000000D03*
%TO.N,Net-(D6-K)*%
X466500000Y-56500000D03*
X447000000Y-47000000D03*
D15*
%TO.N,{slash}CAPSLOCK*%
X75014800Y-110503600D03*
D14*
X74514800Y-58003600D03*
X217000000Y-58000000D03*
%TO.N,Net-(J2-Pin_4)*%
X460500000Y-42500000D03*
%TO.N,/LEDs/PWRLED*%
X463000000Y-60500000D03*
%TO.N,VCC*%
X183500000Y-59000000D03*
X68014800Y-60503600D03*
D15*
X68014800Y-110503600D03*
%TD*%
D16*
%TO.N,/7*%
X301014800Y-46515600D02*
X302766800Y-44763600D01*
X301014800Y-87503600D02*
X301014800Y-46515600D01*
X181500000Y-43500000D02*
X181500000Y-35000000D01*
%TO.N,/15*%
X55258800Y-50843149D02*
X51128800Y-54973149D01*
X191514800Y-76630851D02*
X191514800Y-60660100D01*
X191514800Y-60660100D02*
X191500000Y-60645300D01*
X190331800Y-82591236D02*
X190331800Y-77813851D01*
X55856800Y-107746400D02*
X70080800Y-121970400D01*
X191500000Y-60645300D02*
X191500000Y-35000000D01*
X55856800Y-102920400D02*
X55856800Y-107746400D01*
X192014800Y-89503600D02*
X192014800Y-84274236D01*
X51128800Y-83870400D02*
X55856800Y-88598400D01*
X51128800Y-54973149D02*
X51128800Y-83870400D01*
X55258800Y-45911600D02*
X55258800Y-50843149D01*
X192014800Y-84274236D02*
X190331800Y-82591236D01*
X55856800Y-88598400D02*
X55856800Y-102920400D01*
X190331800Y-77813851D02*
X191514800Y-76630851D01*
%TO.N,/5*%
X180825736Y-48174264D02*
X179000000Y-46348528D01*
X180825736Y-58849164D02*
X180825736Y-48174264D01*
X369480000Y-86020000D02*
X369480000Y-121919600D01*
X177156800Y-84920400D02*
X179014800Y-83062400D01*
X179014800Y-60660100D02*
X180825736Y-58849164D01*
X369500000Y-86000000D02*
X369480000Y-86020000D01*
X179000000Y-46348528D02*
X179000000Y-35000000D01*
X179014800Y-83062400D02*
X179014800Y-60660100D01*
%TO.N,/1*%
X306000000Y-126584265D02*
X306000000Y-138000000D01*
X300884400Y-104000000D02*
X300854800Y-103970400D01*
X310611829Y-121972436D02*
X306000000Y-126584265D01*
X309500000Y-141500000D02*
X309500000Y-151000000D01*
X306000000Y-138000000D02*
X309500000Y-141500000D01*
X307000000Y-107000000D02*
X304000000Y-104000000D01*
X357430000Y-142019600D02*
X358105000Y-141344600D01*
X166000000Y-38500000D02*
X169500000Y-35000000D01*
X357430000Y-145930000D02*
X357500000Y-146000000D01*
X310611829Y-121972436D02*
X307000000Y-118360607D01*
X304000000Y-104000000D02*
X300884400Y-104000000D01*
X167504800Y-104049200D02*
X169014800Y-102539200D01*
X169014800Y-90503600D02*
X166014800Y-87503600D01*
X166000000Y-39500000D02*
X166000000Y-38500000D01*
X169014800Y-102539200D02*
X169014800Y-90503600D01*
X169500000Y-35000000D02*
X174000000Y-35000000D01*
X166014800Y-39514800D02*
X166000000Y-39500000D01*
X357430000Y-142019600D02*
X357430000Y-145930000D01*
X307000000Y-118360607D02*
X307000000Y-107000000D01*
X166014800Y-87503600D02*
X166014800Y-39514800D01*
%TO.N,/30*%
X210250000Y-45532789D02*
X210250000Y-37500000D01*
X314500000Y-88000000D02*
X308000000Y-94500000D01*
X63074166Y-141048382D02*
X63074166Y-159457034D01*
X314296799Y-140820401D02*
X313046800Y-142070400D01*
X308000000Y-94500000D02*
X308000000Y-116000000D01*
X308000000Y-116000000D02*
X314296799Y-122296799D01*
X214000000Y-49282789D02*
X210250000Y-45532789D01*
X218000000Y-61000000D02*
X214000000Y-57000000D01*
X314296799Y-61203201D02*
X314500000Y-61000000D01*
X63074166Y-159457034D02*
X62460800Y-160070400D01*
X314296799Y-143320399D02*
X314296799Y-159362401D01*
X48744800Y-121970400D02*
X51774400Y-125000000D01*
X214000000Y-57000000D02*
X214000000Y-49282789D01*
X63074166Y-128574166D02*
X63074166Y-141048382D01*
X313046800Y-142070400D02*
X314296799Y-143320399D01*
X51774400Y-125000000D02*
X59500000Y-125000000D01*
X314500000Y-61000000D02*
X314500000Y-88000000D01*
X314296799Y-159362401D02*
X312538800Y-161120400D01*
X314296799Y-122296799D02*
X314296799Y-140820401D01*
X59500000Y-125000000D02*
X63074166Y-128574166D01*
%TO.N,/11*%
X46014800Y-84485200D02*
X43000000Y-87500000D01*
X46014800Y-80985200D02*
X46014800Y-84485200D01*
X47000000Y-72500000D02*
X47000000Y-80000000D01*
X49300000Y-70200000D02*
X47000000Y-72500000D01*
X43000000Y-107488800D02*
X45014800Y-109503600D01*
X47000000Y-80000000D02*
X46014800Y-80985200D01*
X48000000Y-55000000D02*
X48000000Y-62000000D01*
X56419800Y-115908600D02*
X56419800Y-122345400D01*
X186500000Y-54988800D02*
X186500000Y-35000000D01*
X50014800Y-109503600D02*
X56419800Y-115908600D01*
X49300000Y-63300000D02*
X49300000Y-70200000D01*
X45014800Y-109503600D02*
X50014800Y-109503600D01*
X56419800Y-122345400D02*
X55744800Y-123020400D01*
X43000000Y-87500000D02*
X43000000Y-107488800D01*
X186514800Y-55003600D02*
X186500000Y-54988800D01*
X48000000Y-62000000D02*
X49300000Y-63300000D01*
%TO.N,/12*%
X47000000Y-82000000D02*
X47014800Y-82014800D01*
X44500000Y-105000000D02*
X47511200Y-105000000D01*
X72000000Y-132000000D02*
X72000000Y-140172548D01*
X187750000Y-62750000D02*
X187750000Y-37500000D01*
X49500000Y-62000000D02*
X49900000Y-62400000D01*
X45000000Y-87000000D02*
X44000000Y-88000000D01*
X64500000Y-121988800D02*
X64500000Y-124500000D01*
X47014800Y-82014800D02*
X47014800Y-86485200D01*
X47014800Y-86485200D02*
X46500000Y-87000000D01*
X47000000Y-81500000D02*
X47000000Y-82000000D01*
X44000000Y-104500000D02*
X44500000Y-105000000D01*
X46500000Y-87000000D02*
X45000000Y-87000000D01*
X49900000Y-71100000D02*
X48000000Y-73000000D01*
X48000000Y-80500000D02*
X47000000Y-81500000D01*
X72000000Y-140172548D02*
X70074166Y-142098382D01*
X49900000Y-62400000D02*
X49900000Y-71100000D01*
X64500000Y-124500000D02*
X72000000Y-132000000D01*
X44000000Y-88000000D02*
X44000000Y-104500000D01*
X47511200Y-105000000D02*
X64500000Y-121988800D01*
X187500000Y-63000000D02*
X187750000Y-62750000D01*
X48000000Y-73000000D02*
X48000000Y-80500000D01*
%TO.N,/13*%
X66014800Y-121503600D02*
X66014800Y-123503600D01*
X71014800Y-159566400D02*
X69460800Y-161120400D01*
X189000000Y-35000000D02*
X189000000Y-55988800D01*
X53014800Y-105503600D02*
X54014800Y-106503600D01*
X48014800Y-83014800D02*
X48014800Y-84014800D01*
X66014800Y-123503600D02*
X73500000Y-130988800D01*
X73500000Y-143500000D02*
X71014800Y-145985200D01*
X50003600Y-56003600D02*
X50500000Y-56500000D01*
X48014800Y-84014800D02*
X53014800Y-89014800D01*
X48000000Y-83000000D02*
X48014800Y-83014800D01*
X53014800Y-89014800D02*
X53014800Y-105503600D01*
X50500000Y-72000000D02*
X49000000Y-73500000D01*
X50500000Y-56500000D02*
X50500000Y-72000000D01*
X73500000Y-130988800D02*
X73500000Y-143500000D01*
X189000000Y-55988800D02*
X189014800Y-56003600D01*
X48000000Y-82500000D02*
X48000000Y-83000000D01*
X54014800Y-109503600D02*
X66014800Y-121503600D01*
X71014800Y-145985200D02*
X71014800Y-159566400D01*
X49000000Y-81500000D02*
X48000000Y-82500000D01*
X54014800Y-106503600D02*
X54014800Y-109503600D01*
X50000000Y-56003600D02*
X50003600Y-56003600D01*
X49000000Y-73500000D02*
X49000000Y-81500000D01*
%TO.N,/16*%
X411014800Y-83503600D02*
X411014800Y-106503600D01*
X74906800Y-83870400D02*
X84304800Y-93268400D01*
X89130800Y-121970400D02*
X89130800Y-131368400D01*
X85014800Y-106503600D02*
X89130800Y-110619600D01*
X192750000Y-62750000D02*
X192750000Y-37500000D01*
X89130800Y-131368400D02*
X98782800Y-141020400D01*
X84304800Y-105793600D02*
X85014800Y-106503600D01*
X89130800Y-110619600D02*
X89130800Y-121970400D01*
X192500000Y-63000000D02*
X192750000Y-62750000D01*
X84304800Y-93268400D02*
X84304800Y-102920400D01*
X84304800Y-102920400D02*
X84304800Y-105793600D01*
X74906800Y-83870400D02*
X74906800Y-71593200D01*
X74906800Y-71593200D02*
X75000000Y-71500000D01*
%TO.N,/2*%
X168000000Y-39500000D02*
X170000000Y-37500000D01*
X168000000Y-40500000D02*
X168000000Y-39500000D01*
X286884800Y-123020400D02*
X286884800Y-139384800D01*
X172330800Y-123020400D02*
X175014800Y-120336400D01*
X175014800Y-92503600D02*
X168014800Y-85503600D01*
X362158000Y-127360400D02*
X362014800Y-127503600D01*
X286884800Y-139384800D02*
X287000000Y-139500000D01*
X170000000Y-37500000D02*
X175250000Y-37500000D01*
X168014800Y-40514800D02*
X168000000Y-40500000D01*
X175014800Y-120336400D02*
X175014800Y-92503600D01*
X362158000Y-84855600D02*
X362158000Y-127360400D01*
X168014800Y-85503600D02*
X168014800Y-40514800D01*
%TO.N,/3*%
X337014800Y-91503600D02*
X337014800Y-143503600D01*
X181982800Y-142070400D02*
X192014800Y-152102400D01*
X180501251Y-142070400D02*
X170014800Y-131583949D01*
X329556800Y-88045600D02*
X331014800Y-89503600D01*
X169788000Y-36212000D02*
X175288000Y-36212000D01*
X192014800Y-152102400D02*
X192014800Y-159978400D01*
X181982800Y-142070400D02*
X180501251Y-142070400D01*
X167014800Y-86503600D02*
X167014800Y-72503600D01*
X175288000Y-36212000D02*
X176500000Y-35000000D01*
X174014800Y-118503600D02*
X174014800Y-93503600D01*
X167014800Y-72503600D02*
X167000000Y-72488800D01*
X167000000Y-72488800D02*
X167000000Y-39000000D01*
X174014800Y-93503600D02*
X167014800Y-86503600D01*
X278014800Y-132503600D02*
X277907800Y-132610600D01*
X329556800Y-84920400D02*
X329556800Y-88045600D01*
X331014800Y-89503600D02*
X335014800Y-89503600D01*
X167000000Y-39000000D02*
X169788000Y-36212000D01*
X277907800Y-141395400D02*
X277232800Y-142070400D01*
X192014800Y-159978400D02*
X190872800Y-161120400D01*
X170014800Y-131583949D02*
X170014800Y-122503600D01*
X170014800Y-122503600D02*
X174014800Y-118503600D01*
X335014800Y-89503600D02*
X337014800Y-91503600D01*
X277907800Y-132610600D02*
X277907800Y-141395400D01*
%TO.N,/17*%
X194014800Y-74503600D02*
X194014800Y-60660100D01*
X194014800Y-60660100D02*
X194000000Y-60645300D01*
X199014800Y-84503600D02*
X197014800Y-82503600D01*
X93956800Y-93522400D02*
X103354800Y-102920400D01*
X93956800Y-83870400D02*
X93956800Y-93522400D01*
X197014800Y-82503600D02*
X197014800Y-77503600D01*
X103354800Y-102920400D02*
X103354800Y-117144400D01*
X103354800Y-117144400D02*
X108180800Y-121970400D01*
X86307200Y-45698400D02*
X86307200Y-76220800D01*
X86307200Y-76220800D02*
X93956800Y-83870400D01*
X108180800Y-121970400D02*
X108180800Y-131368400D01*
X197014800Y-77503600D02*
X194014800Y-74503600D01*
X199014800Y-90503600D02*
X199014800Y-84503600D01*
X194000000Y-60645300D02*
X194000000Y-35000000D01*
X108180800Y-131368400D02*
X117832800Y-141020400D01*
%TO.N,/14*%
X190000000Y-63000000D02*
X190250000Y-62750000D01*
X190250000Y-62750000D02*
X190250000Y-37500000D01*
X49014800Y-84019142D02*
X50466058Y-85470400D01*
X50470400Y-85470400D02*
X54014800Y-89014800D01*
X54014800Y-104503600D02*
X55014800Y-105503600D01*
X67014800Y-122503600D02*
X74500000Y-129988800D01*
X50000000Y-75000000D02*
X50000000Y-82000000D01*
X55014800Y-105503600D02*
X55014800Y-108503600D01*
X54014800Y-89014800D02*
X54014800Y-104503600D01*
X55014800Y-108503600D02*
X67014800Y-120503600D01*
X74500000Y-145000000D02*
X90620400Y-161120400D01*
X50466058Y-85470400D02*
X50470400Y-85470400D01*
X90620400Y-161120400D02*
X93336800Y-161120400D01*
X50000000Y-82000000D02*
X49014800Y-82985200D01*
X67014800Y-120503600D02*
X67014800Y-122503600D01*
X74500000Y-129988800D02*
X74500000Y-145000000D01*
X49014800Y-82985200D02*
X49014800Y-84019142D01*
%TO.N,/18*%
X127230800Y-111719600D02*
X127230800Y-121970400D01*
X127230800Y-131368400D02*
X136882800Y-141020400D01*
X113006800Y-83870400D02*
X110500000Y-81363600D01*
X122404800Y-106893600D02*
X123014800Y-107503600D01*
X110500000Y-81363600D02*
X110500000Y-73000000D01*
X113006800Y-93522400D02*
X122404800Y-102920400D01*
X113006800Y-83870400D02*
X113006800Y-93522400D01*
X110500000Y-46190800D02*
X110122800Y-45813600D01*
X123014800Y-107503600D02*
X127230800Y-111719600D01*
X110500000Y-73000000D02*
X110500000Y-46190800D01*
X127230800Y-121970400D02*
X127230800Y-131368400D01*
X122404800Y-102920400D02*
X122404800Y-106893600D01*
X195250000Y-62750000D02*
X195250000Y-37500000D01*
X195000000Y-63000000D02*
X195250000Y-62750000D01*
%TO.N,/19*%
X141454800Y-102920400D02*
X141454800Y-112943600D01*
X146280800Y-131368400D02*
X155932800Y-141020400D01*
X132056800Y-78938851D02*
X132056800Y-83870400D01*
X196500000Y-56988800D02*
X196500000Y-35000000D01*
X196514800Y-57003600D02*
X196500000Y-56988800D01*
X132056800Y-93522400D02*
X141454800Y-102920400D01*
X141454800Y-112943600D02*
X142014800Y-113503600D01*
X146280800Y-121970400D02*
X146280800Y-131368400D01*
X142014800Y-113503600D02*
X146280800Y-117769600D01*
X132056800Y-83870400D02*
X132056800Y-93522400D01*
X133998800Y-45841600D02*
X133998800Y-76996851D01*
X133998800Y-76996851D02*
X132056800Y-78938851D01*
X146280800Y-117769600D02*
X146280800Y-121970400D01*
%TO.N,/20*%
X197750000Y-62750000D02*
X197750000Y-37500000D01*
X174531600Y-141020400D02*
X174982800Y-141020400D01*
X151106800Y-78938851D02*
X160000000Y-70045651D01*
X160000000Y-47938800D02*
X157874800Y-45813600D01*
X151106800Y-83870400D02*
X151106800Y-78938851D01*
X166014800Y-132503600D02*
X174531600Y-141020400D01*
X197500000Y-63000000D02*
X197750000Y-62750000D01*
X151106800Y-83870400D02*
X151106800Y-93601200D01*
X160504800Y-102999200D02*
X160504800Y-117144400D01*
X165330800Y-131819600D02*
X166014800Y-132503600D01*
X151106800Y-93601200D02*
X160504800Y-102999200D01*
X165330800Y-121970400D02*
X165330800Y-131819600D01*
X160504800Y-117144400D02*
X165330800Y-121970400D01*
X160000000Y-70045651D02*
X160000000Y-47938800D01*
%TO.N,/27*%
X285890800Y-58890800D02*
X286000000Y-59000000D01*
X205000000Y-58000000D02*
X205000000Y-43909130D01*
X285890800Y-45813600D02*
X285890800Y-58890800D01*
X204000000Y-59000000D02*
X205000000Y-58000000D01*
X284456800Y-93522400D02*
X293854800Y-102920400D01*
X293854800Y-102920400D02*
X293854800Y-144854800D01*
X286000000Y-59000000D02*
X284456800Y-60543200D01*
X295000000Y-146000000D02*
X303000000Y-146000000D01*
X206500000Y-42409130D02*
X206500000Y-35000000D01*
X303000000Y-146000000D02*
X303000000Y-156518400D01*
X205000000Y-43909130D02*
X206500000Y-42409130D01*
X293854800Y-144854800D02*
X295000000Y-146000000D01*
X303000000Y-156518400D02*
X302014800Y-157503600D01*
X284456800Y-60543200D02*
X284456800Y-83870400D01*
X284456800Y-83870400D02*
X284456800Y-93522400D01*
%TO.N,/21*%
X199014800Y-83655072D02*
X200014800Y-84655072D01*
X199014800Y-64003600D02*
X199014800Y-46503600D01*
X199014800Y-46503600D02*
X199000000Y-46488800D01*
X170156800Y-85645600D02*
X176014800Y-91503600D01*
X199014800Y-64003600D02*
X199014800Y-83655072D01*
X200014800Y-84655072D02*
X200014800Y-91503600D01*
X199000000Y-46488800D02*
X199000000Y-35000000D01*
X179554800Y-102920400D02*
X179554800Y-117144400D01*
X178088097Y-102920400D02*
X179554800Y-102920400D01*
X184380800Y-131368400D02*
X194032800Y-141020400D01*
X179554800Y-117144400D02*
X184380800Y-121970400D01*
X176014800Y-91503600D02*
X176014800Y-100847103D01*
X184380800Y-121970400D02*
X184380800Y-131368400D01*
X170156800Y-83870400D02*
X170156800Y-85645600D01*
X176014800Y-100847103D02*
X178088097Y-102920400D01*
%TO.N,/22*%
X198604800Y-102920400D02*
X198604800Y-108093600D01*
X198604800Y-108093600D02*
X199014800Y-108503600D01*
X189206800Y-93522400D02*
X198604800Y-102920400D01*
X203430800Y-131368400D02*
X213082800Y-141020400D01*
X200264800Y-63160100D02*
X200250000Y-63145300D01*
X434508800Y-85472000D02*
X434508800Y-120172000D01*
X434508800Y-120172000D02*
X436208800Y-121872000D01*
X203430800Y-121970400D02*
X203430800Y-131368400D01*
X203430800Y-112919600D02*
X203430800Y-121970400D01*
X436208800Y-83772000D02*
X434508800Y-85472000D01*
X200264800Y-82253600D02*
X200264800Y-63160100D01*
X189206800Y-83870400D02*
X189206800Y-93522400D01*
X199014800Y-108503600D02*
X203430800Y-112919600D01*
X200250000Y-63145300D02*
X200250000Y-37500000D01*
X200014800Y-82503600D02*
X200264800Y-82253600D01*
%TO.N,/23*%
X223014800Y-126503600D02*
X232136800Y-135625600D01*
X217654800Y-102920400D02*
X217654800Y-117144400D01*
X201514800Y-77128400D02*
X208256800Y-83870400D01*
X208256800Y-83870400D02*
X208256800Y-93522400D01*
X222480800Y-121970400D02*
X222480800Y-124969600D01*
X201514800Y-48003600D02*
X201514800Y-77128400D01*
X208256800Y-93522400D02*
X217654800Y-102920400D01*
X201518400Y-48000000D02*
X201500000Y-47981600D01*
X201518400Y-48000000D02*
X201514800Y-48003600D01*
X222480800Y-124969600D02*
X223014800Y-125503600D01*
X223014800Y-125503600D02*
X223014800Y-126503600D01*
X201500000Y-47981600D02*
X201500000Y-35000000D01*
X217654800Y-117144400D02*
X222480800Y-121970400D01*
X232136800Y-135625600D02*
X232136800Y-141022400D01*
%TO.N,/24*%
X453000000Y-146000000D02*
X455500000Y-148500000D01*
X227306800Y-83870400D02*
X227306800Y-93522400D01*
X228014800Y-83162400D02*
X227306800Y-83870400D01*
X455258800Y-83772000D02*
X453000000Y-86030800D01*
X241530800Y-131396400D02*
X251176800Y-141042400D01*
X202750000Y-48864800D02*
X202750000Y-37500000D01*
X236704800Y-102920400D02*
X236704800Y-117144400D01*
X228014800Y-68503600D02*
X228014800Y-74503600D01*
X202114800Y-62614800D02*
X202114800Y-49500000D01*
X202114800Y-49500000D02*
X202750000Y-48864800D01*
X228014800Y-74503600D02*
X228014800Y-83162400D01*
X227306800Y-93522400D02*
X236704800Y-102920400D01*
X453000000Y-86030800D02*
X453000000Y-146000000D01*
X236704800Y-117144400D02*
X241530800Y-121970400D01*
X483079200Y-150503600D02*
X483408800Y-150174000D01*
X241530800Y-121970400D02*
X241530800Y-131396400D01*
X202500000Y-63000000D02*
X202114800Y-62614800D01*
%TO.N,/25*%
X247014800Y-93503600D02*
X247014800Y-94180400D01*
X260834800Y-121970400D02*
X260834800Y-131622400D01*
X203450000Y-41050000D02*
X204000000Y-40500000D01*
X203446400Y-54500000D02*
X203450000Y-54503600D01*
X203450000Y-54503600D02*
X203450000Y-41050000D01*
X204000000Y-40500000D02*
X204000000Y-35000000D01*
X238138800Y-45813600D02*
X238138800Y-75652400D01*
X247014800Y-94180400D02*
X255754800Y-102920400D01*
X255754800Y-102920400D02*
X255754800Y-116890400D01*
X255754800Y-116890400D02*
X260834800Y-121970400D01*
X246356800Y-92845600D02*
X247014800Y-93503600D01*
X238138800Y-75652400D02*
X246356800Y-83870400D01*
X260834800Y-131622400D02*
X270232800Y-141020400D01*
X246356800Y-83870400D02*
X246356800Y-92845600D01*
%TO.N,/26*%
X262000000Y-52500000D02*
X262000000Y-51500000D01*
X262000000Y-51500000D02*
X262014800Y-51485200D01*
X204400000Y-43600000D02*
X205250000Y-42750000D01*
X205250000Y-42750000D02*
X205250000Y-37500000D01*
X265406800Y-83870400D02*
X259500000Y-77963600D01*
X259500000Y-55000000D02*
X262000000Y-52500000D01*
X262014800Y-51485200D02*
X262014800Y-45813600D01*
X259500000Y-77963600D02*
X259500000Y-67503600D01*
X204400000Y-56100000D02*
X204400000Y-43600000D01*
X203000000Y-57500000D02*
X204400000Y-56100000D01*
X265406800Y-93522400D02*
X274804800Y-102920400D01*
X274804800Y-112293600D02*
X275014800Y-112503600D01*
X259500000Y-67503600D02*
X259500000Y-55000000D01*
X265406800Y-83870400D02*
X265406800Y-93522400D01*
X205000000Y-63000000D02*
X203000000Y-61000000D01*
X274804800Y-102920400D02*
X274804800Y-112293600D01*
X275014800Y-113503600D02*
X279884800Y-118373600D01*
X275014800Y-112503600D02*
X275014800Y-113503600D01*
X203000000Y-61000000D02*
X203000000Y-57500000D01*
X279884800Y-118373600D02*
X279884800Y-121970400D01*
%TO.N,/10*%
X287120400Y-161120400D02*
X282000000Y-156000000D01*
X202014800Y-124503600D02*
X201014800Y-123503600D01*
X196014800Y-107503600D02*
X196014800Y-101503600D01*
X201014800Y-123503600D02*
X201014800Y-112503600D01*
X196014800Y-101503600D02*
X188014800Y-93503600D01*
X288662800Y-161120400D02*
X287120400Y-161120400D01*
X188014800Y-93503600D02*
X188014800Y-86503600D01*
X210014800Y-145985200D02*
X210014800Y-139503600D01*
X210014800Y-139503600D02*
X202014800Y-131503600D01*
X185264800Y-63160100D02*
X185250000Y-63145300D01*
X202014800Y-131503600D02*
X202014800Y-124503600D01*
X210000000Y-146000000D02*
X210014800Y-145985200D01*
X188014800Y-86503600D02*
X187014800Y-85503600D01*
X185264800Y-75753600D02*
X185264800Y-63160100D01*
X201014800Y-112503600D02*
X196014800Y-107503600D01*
X185250000Y-63145300D02*
X185250000Y-37500000D01*
X187014800Y-85503600D02*
X187014800Y-77503600D01*
X187014800Y-77503600D02*
X185264800Y-75753600D01*
%TO.N,/6*%
X180264800Y-101226236D02*
X180264800Y-63160100D01*
X304014800Y-150503600D02*
X306046800Y-148471600D01*
X183014800Y-103976236D02*
X180264800Y-101226236D01*
X180000000Y-46500000D02*
X180000000Y-43000000D01*
X197014800Y-144485200D02*
X197014800Y-140503600D01*
X188014800Y-131503600D02*
X188014800Y-122503600D01*
X188014800Y-122503600D02*
X183014800Y-117503600D01*
X306046800Y-148471600D02*
X306046800Y-141020400D01*
X181500000Y-61924900D02*
X181500000Y-48000000D01*
X183014800Y-117503600D02*
X183014800Y-103976236D01*
X180264800Y-63160100D02*
X181500000Y-61924900D01*
X180000000Y-43000000D02*
X180250000Y-42750000D01*
X181500000Y-48000000D02*
X180000000Y-46500000D01*
X180250000Y-42750000D02*
X180250000Y-37500000D01*
X197000000Y-144500000D02*
X197014800Y-144485200D01*
X197014800Y-140503600D02*
X188014800Y-131503600D01*
%TO.N,/8*%
X182764800Y-63160100D02*
X182500000Y-62895300D01*
X184014800Y-104106236D02*
X187229800Y-100891236D01*
X305538800Y-152027600D02*
X305014800Y-151503600D01*
X187229800Y-95718600D02*
X182764800Y-91253600D01*
X182750000Y-42850000D02*
X182750000Y-37500000D01*
X182764800Y-91253600D02*
X182764800Y-63160100D01*
X183400000Y-57100000D02*
X183400000Y-43500000D01*
X189014800Y-131503600D02*
X189014800Y-122135949D01*
X183400000Y-43500000D02*
X182750000Y-42850000D01*
X198000000Y-140519150D02*
X198000000Y-145500000D01*
X195014800Y-137533949D02*
X195014800Y-137503600D01*
X195014800Y-137503600D02*
X189014800Y-131503600D01*
X184014800Y-117135949D02*
X184014800Y-104106236D01*
X197990425Y-140509575D02*
X195014800Y-137533949D01*
X189014800Y-122135949D02*
X184014800Y-117135949D01*
X182500000Y-62895300D02*
X182500000Y-58000000D01*
X305538800Y-160070400D02*
X305538800Y-152027600D01*
X182500000Y-58000000D02*
X183400000Y-57100000D01*
X187229800Y-100891236D02*
X187229800Y-95718600D01*
%TO.N,/28*%
X334000000Y-124000000D02*
X321000000Y-124000000D01*
X303500000Y-69000000D02*
X303500000Y-70000000D01*
X309766800Y-55733200D02*
X309766800Y-45813600D01*
X205656800Y-44100858D02*
X207750000Y-42007658D01*
X322556800Y-83870400D02*
X329190000Y-90503600D01*
X320022436Y-123022436D02*
X317611829Y-123022436D01*
X321000000Y-124000000D02*
X320022436Y-123022436D01*
X303506800Y-68993200D02*
X303500000Y-69000000D01*
X303506800Y-70006800D02*
X303506800Y-83870400D01*
X412014800Y-82503600D02*
X412014800Y-145503600D01*
X336014800Y-121985200D02*
X334000000Y-124000000D01*
X303500000Y-70000000D02*
X303506800Y-70006800D01*
X303500000Y-62000000D02*
X309766800Y-55733200D01*
X207000000Y-63000000D02*
X205656800Y-61656800D01*
X205656800Y-61656800D02*
X205656800Y-44100858D01*
X303506800Y-62006800D02*
X303506800Y-68993200D01*
X329190000Y-90503600D02*
X334014800Y-90503600D01*
X303500000Y-62000000D02*
X303506800Y-62006800D01*
X336014800Y-92503600D02*
X336014800Y-121985200D01*
X207750000Y-42007658D02*
X207750000Y-37500000D01*
X334014800Y-90503600D02*
X336014800Y-92503600D01*
%TO.N,/29*%
X213056800Y-59056800D02*
X213056800Y-49188117D01*
X313014800Y-87503600D02*
X313014800Y-67514800D01*
X214000000Y-60000000D02*
X213056800Y-59056800D01*
X210000000Y-47313600D02*
X209000000Y-46313600D01*
X384014800Y-115434800D02*
X376480000Y-122969600D01*
X376480000Y-122969600D02*
X369480000Y-129969600D01*
X369480000Y-129969600D02*
X369480000Y-140969600D01*
X383754000Y-89242800D02*
X384014800Y-89503600D01*
X313014800Y-67514800D02*
X311000000Y-65500000D01*
X383754000Y-83805600D02*
X383754000Y-89242800D01*
X384014800Y-89503600D02*
X384014800Y-115434800D01*
X209000000Y-46313600D02*
X209000000Y-35000000D01*
X213056800Y-49188117D02*
X211182283Y-47313600D01*
X311000000Y-65500000D02*
X311000000Y-60000000D01*
X211182283Y-47313600D02*
X210000000Y-47313600D01*
%TO.N,/4*%
X482558799Y-86071999D02*
X482558799Y-102622001D01*
X481788400Y-140503600D02*
X484458800Y-143174000D01*
X435014800Y-148503600D02*
X435014800Y-159818000D01*
X435014800Y-159818000D02*
X433810800Y-161022000D01*
X177014800Y-88503600D02*
X177014800Y-92503600D01*
X175014800Y-83503600D02*
X175014800Y-86503600D01*
X463508799Y-140722001D02*
X462258800Y-141972000D01*
X462258800Y-141972000D02*
X463508799Y-143221999D01*
X482558799Y-121672001D02*
X481308800Y-122922000D01*
X462258800Y-122922000D02*
X463508799Y-124171999D01*
X463508799Y-124171999D02*
X463508799Y-140722001D01*
X177831800Y-80686600D02*
X175014800Y-83503600D01*
X481308800Y-103872000D02*
X482558799Y-105121999D01*
X177750000Y-38500000D02*
X177750000Y-37500000D01*
X463508799Y-105121999D02*
X462258800Y-103872000D01*
X482558799Y-102622001D02*
X481308800Y-103872000D01*
X424158800Y-141972000D02*
X428483200Y-141972000D01*
X463508799Y-159772001D02*
X462258800Y-161022000D01*
X470014800Y-127503600D02*
X468014800Y-129503600D01*
X177831800Y-63227100D02*
X177831800Y-80686600D01*
X476727200Y-127503600D02*
X470014800Y-127503600D01*
X462258800Y-122922000D02*
X463508799Y-121672001D01*
X481308800Y-84822000D02*
X482558799Y-86071999D01*
X428483200Y-141972000D02*
X435014800Y-148503600D01*
X463508799Y-121672001D02*
X463508799Y-105121999D01*
X171500000Y-44750000D02*
X171500000Y-56895300D01*
X463508799Y-143221999D02*
X463508799Y-159772001D01*
X468014800Y-139503600D02*
X469014800Y-140503600D01*
X175014800Y-86503600D02*
X177014800Y-88503600D01*
X171500000Y-56895300D02*
X177831800Y-63227100D01*
X468014800Y-129503600D02*
X468014800Y-139503600D01*
X481308800Y-122922000D02*
X476727200Y-127503600D01*
X482558799Y-105121999D02*
X482558799Y-121672001D01*
X469014800Y-140503600D02*
X481788400Y-140503600D01*
X177750000Y-38500000D02*
X171500000Y-44750000D01*
%TO.N,Net-(D8-K)*%
X459000000Y-43000000D02*
X460000000Y-44000000D01*
X440300000Y-43000000D02*
X459000000Y-43000000D01*
X460000000Y-44000000D02*
X468000000Y-44000000D01*
%TO.N,Net-(D6-K)*%
X466500000Y-56500000D02*
X448500000Y-56500000D01*
X447000000Y-55000000D02*
X447000000Y-47000000D01*
X448500000Y-56500000D02*
X447000000Y-55000000D01*
%TO.N,{slash}CAPSLOCK*%
X77014800Y-108503600D02*
X75014800Y-110503600D01*
X72014800Y-84514800D02*
X74000000Y-86500000D01*
X77000000Y-88500000D02*
X77014800Y-88514800D01*
X74514800Y-58003600D02*
X72014800Y-60503600D01*
X72014800Y-60503600D02*
X72014800Y-84514800D01*
X77000000Y-88000000D02*
X77000000Y-88500000D01*
X217000000Y-51434261D02*
X211500000Y-45934261D01*
X75500000Y-86500000D02*
X77000000Y-88000000D01*
X217000000Y-58000000D02*
X217000000Y-51434261D01*
X77014800Y-88514800D02*
X77014800Y-108503600D01*
X74000000Y-86500000D02*
X75500000Y-86500000D01*
X211500000Y-45934261D02*
X211500000Y-35000000D01*
%TO.N,Net-(J2-Pin_4)*%
X459000000Y-41000000D02*
X460500000Y-42500000D01*
X434680000Y-41000000D02*
X453500000Y-41000000D01*
X432680000Y-43000000D02*
X434680000Y-41000000D01*
X453500000Y-41000000D02*
X459000000Y-41000000D01*
%TO.N,/LEDs/PWRLED*%
X437760000Y-51103503D02*
X447156497Y-60500000D01*
X447156497Y-60500000D02*
X463000000Y-60500000D01*
X437760000Y-43000000D02*
X437760000Y-51103503D01*
%TO.N,VCC*%
X68014800Y-110503600D02*
X68014800Y-60503600D01*
X183500000Y-59000000D02*
X184000000Y-58500000D01*
X184000000Y-58500000D02*
X184000000Y-35000000D01*
%TD*%
M02*
