%TF.GenerationSoftware,KiCad,Pcbnew,9.0.8*%
%TF.CreationDate,2026-03-30T08:35:55-04:00*%
%TF.ProjectId,A1200KBv2,41313230-304b-4427-9632-2e6b69636164,rev?*%
%TF.SameCoordinates,Original*%
%TF.FileFunction,Soldermask,Top*%
%TF.FilePolarity,Negative*%
%FSLAX46Y46*%
G04 Gerber Fmt 4.6, Leading zero omitted, Abs format (unit mm)*
G04 Created by KiCad (PCBNEW 9.0.8) date 2026-03-30 08:35:55*
%MOMM*%
%LPD*%
G01*
G04 APERTURE LIST*
G04 Aperture macros list*
%AMRoundRect*
0 Rectangle with rounded corners*
0 $1 Rounding radius*
0 $2 $3 $4 $5 $6 $7 $8 $9 X,Y pos of 4 corners*
0 Add a 4 corners polygon primitive as box body*
4,1,4,$2,$3,$4,$5,$6,$7,$8,$9,$2,$3,0*
0 Add four circle primitives for the rounded corners*
1,1,$1+$1,$2,$3*
1,1,$1+$1,$4,$5*
1,1,$1+$1,$6,$7*
1,1,$1+$1,$8,$9*
0 Add four rect primitives between the rounded corners*
20,1,$1+$1,$2,$3,$4,$5,0*
20,1,$1+$1,$4,$5,$6,$7,0*
20,1,$1+$1,$6,$7,$8,$9,0*
20,1,$1+$1,$8,$9,$2,$3,0*%
G04 Aperture macros list end*
%ADD10C,5.100000*%
%ADD11RoundRect,0.243750X0.243750X0.456250X-0.243750X0.456250X-0.243750X-0.456250X0.243750X-0.456250X0*%
%ADD12RoundRect,0.250000X-0.350000X-0.450000X0.350000X-0.450000X0.350000X0.450000X-0.350000X0.450000X0*%
%ADD13RoundRect,0.250000X0.350000X0.450000X-0.350000X0.450000X-0.350000X-0.450000X0.350000X-0.450000X0*%
%ADD14RoundRect,0.250000X0.475000X-0.337500X0.475000X0.337500X-0.475000X0.337500X-0.475000X-0.337500X0*%
%ADD15RoundRect,0.150000X-0.512500X-0.150000X0.512500X-0.150000X0.512500X0.150000X-0.512500X0.150000X0*%
%ADD16RoundRect,0.250000X0.450000X-0.350000X0.450000X0.350000X-0.450000X0.350000X-0.450000X-0.350000X0*%
%ADD17RoundRect,0.243750X-0.243750X-0.456250X0.243750X-0.456250X0.243750X0.456250X-0.243750X0.456250X0*%
%ADD18R,1.700000X1.700000*%
%ADD19O,1.700000X1.700000*%
%ADD20C,1.524000*%
G04 APERTURE END LIST*
D10*
%TO.C,K60*%
X274632800Y-136320400D03*
%TD*%
%TO.C,K8*%
X88704800Y-98220400D03*
%TD*%
%TO.C,K56*%
X257614800Y-50513600D03*
%TD*%
%TO.C,K64*%
X298254800Y-98220400D03*
%TD*%
%TO.C,K68*%
X305366800Y-50513600D03*
%TD*%
%TO.C,K53*%
X260154800Y-98220400D03*
%TD*%
D11*
%TO.C,D9*%
X468129002Y-42308207D03*
X466254002Y-42308207D03*
%TD*%
D10*
%TO.C,K81*%
X421558800Y-117172000D03*
%TD*%
%TO.C,K26*%
X141282800Y-136320400D03*
%TD*%
%TO.C,K5*%
X67474166Y-136320400D03*
%TD*%
%TO.C,K41*%
X198432800Y-136320400D03*
%TD*%
%TO.C,K34*%
X174556800Y-79170400D03*
%TD*%
%TO.C,K13*%
X98356800Y-79170400D03*
%TD*%
%TO.C,K58*%
X279204800Y-98220400D03*
%TD*%
%TO.C,K52*%
X250756800Y-79170400D03*
%TD*%
%TO.C,K18*%
X117406800Y-79170400D03*
%TD*%
%TO.C,K88*%
X459658800Y-79072000D03*
%TD*%
%TO.C,K51*%
X233738800Y-50513600D03*
%TD*%
%TO.C,K12*%
X90736800Y-155370400D03*
%TD*%
D12*
%TO.C,R4*%
X462585571Y-50320725D03*
X464585571Y-50320725D03*
%TD*%
D10*
%TO.C,K2*%
X55528800Y-79170400D03*
%TD*%
%TO.C,K25*%
X131630800Y-117270400D03*
%TD*%
%TO.C,K17*%
X105722800Y-50513600D03*
%TD*%
%TO.C,K49*%
X226880800Y-117270400D03*
%TD*%
%TO.C,K24*%
X145854800Y-98220400D03*
%TD*%
%TO.C,K43*%
X212656800Y-79170400D03*
%TD*%
%TO.C,K47*%
X231706800Y-79170400D03*
%TD*%
%TO.C,K48*%
X241104800Y-98220400D03*
%TD*%
%TO.C,K69*%
X307906800Y-79170400D03*
%TD*%
%TO.C,K85*%
X440608800Y-98122000D03*
%TD*%
%TO.C,K35*%
X183954800Y-98220400D03*
%TD*%
D13*
%TO.C,R1*%
X462955944Y-58317159D03*
X460955944Y-58317159D03*
%TD*%
D10*
%TO.C,K40*%
X188780800Y-117270400D03*
%TD*%
%TO.C,K37*%
X179382800Y-136320400D03*
%TD*%
%TO.C,K20*%
X112580800Y-117270400D03*
%TD*%
%TO.C,K75*%
X373880000Y-117219600D03*
%TD*%
%TO.C,K67*%
X309938800Y-155370400D03*
%TD*%
D11*
%TO.C,D1*%
X74708082Y-112075665D03*
X72833082Y-112075665D03*
%TD*%
D10*
%TO.C,K7*%
X79306800Y-79170400D03*
%TD*%
%TO.C,K76*%
X373880000Y-136269600D03*
%TD*%
%TO.C,K9*%
X74480800Y-117270400D03*
%TD*%
%TO.C,K77*%
X388154000Y-79105600D03*
%TD*%
%TO.C,K31*%
X160332800Y-136320400D03*
%TD*%
%TO.C,K19*%
X126804800Y-98220400D03*
%TD*%
%TO.C,K73*%
X354830000Y-136269600D03*
%TD*%
D14*
%TO.C,C1*%
X443000000Y-48537500D03*
X443000000Y-46462500D03*
%TD*%
D10*
%TO.C,K32*%
X188400050Y-155370400D03*
%TD*%
%TO.C,K86*%
X440608800Y-117172000D03*
%TD*%
%TO.C,K90*%
X459658800Y-117172000D03*
%TD*%
%TO.C,K57*%
X269806800Y-79170400D03*
%TD*%
%TO.C,K59*%
X265234800Y-117270400D03*
%TD*%
%TO.C,K15*%
X93530800Y-117270400D03*
%TD*%
D12*
%TO.C,R2*%
X471677090Y-58320684D03*
X473677090Y-58320684D03*
%TD*%
D10*
%TO.C,K33*%
X177350800Y-50513600D03*
%TD*%
%TO.C,K29*%
X164904800Y-98299200D03*
%TD*%
%TO.C,K16*%
X103182800Y-136320400D03*
%TD*%
%TO.C,K93*%
X478708800Y-79072000D03*
%TD*%
%TO.C,K54*%
X245930800Y-117270400D03*
%TD*%
D15*
%TO.C,U1*%
X445000000Y-42100000D03*
X445000000Y-43050000D03*
X445000000Y-44000000D03*
X447275000Y-44000000D03*
X447275000Y-43050000D03*
X447275000Y-42100000D03*
%TD*%
D10*
%TO.C,K28*%
X155506800Y-79170400D03*
%TD*%
%TO.C,K27*%
X153474800Y-50513600D03*
%TD*%
%TO.C,K11*%
X81907200Y-50398400D03*
%TD*%
%TO.C,K55*%
X255576800Y-136342400D03*
%TD*%
%TO.C,K4*%
X53144800Y-117270400D03*
%TD*%
D12*
%TO.C,R5*%
X462558787Y-42320464D03*
X464558787Y-42320464D03*
%TD*%
D10*
%TO.C,K92*%
X459658800Y-155370400D03*
%TD*%
%TO.C,K95*%
X478708800Y-117172000D03*
%TD*%
%TO.C,K65*%
X284284800Y-117270400D03*
%TD*%
%TO.C,K21*%
X122232800Y-136320400D03*
%TD*%
%TO.C,K74*%
X359558000Y-79105600D03*
%TD*%
%TO.C,K39*%
X203004800Y-98220400D03*
%TD*%
%TO.C,K23*%
X136456800Y-79170400D03*
%TD*%
D16*
%TO.C,R3*%
X445500000Y-48500000D03*
X445500000Y-46500000D03*
%TD*%
D10*
%TO.C,K82*%
X421558800Y-136222000D03*
%TD*%
%TO.C,K87*%
X440608800Y-136222000D03*
%TD*%
%TO.C,K61*%
X286062800Y-155370400D03*
%TD*%
%TO.C,K66*%
X310446800Y-136320400D03*
%TD*%
%TO.C,K78*%
X392930000Y-136269600D03*
%TD*%
%TO.C,K80*%
X421558800Y-98122000D03*
%TD*%
%TO.C,K63*%
X288856800Y-79170400D03*
%TD*%
%TO.C,K22*%
X129598800Y-50541600D03*
%TD*%
%TO.C,K38*%
X193606800Y-79170400D03*
%TD*%
%TO.C,K14*%
X107754800Y-98220400D03*
%TD*%
%TO.C,K96*%
X478708800Y-145774000D03*
%TD*%
%TO.C,K83*%
X431210800Y-155370400D03*
%TD*%
D11*
%TO.C,D6*%
X466476376Y-58312294D03*
X464601376Y-58312294D03*
%TD*%
D10*
%TO.C,K36*%
X169730800Y-117270400D03*
%TD*%
%TO.C,K42*%
X209856800Y-50513600D03*
%TD*%
%TO.C,K44*%
X222054800Y-98220400D03*
%TD*%
%TO.C,K84*%
X440608800Y-79072000D03*
%TD*%
%TO.C,K94*%
X478708800Y-98122000D03*
%TD*%
%TO.C,K50*%
X236536800Y-136322400D03*
%TD*%
%TO.C,K46*%
X217482800Y-136320400D03*
%TD*%
%TO.C,K89*%
X459658800Y-98122000D03*
%TD*%
D17*
%TO.C,D7*%
X468169066Y-58319713D03*
X470044066Y-58319713D03*
%TD*%
D10*
%TO.C,K62*%
X281490800Y-50513600D03*
%TD*%
%TO.C,K45*%
X207830800Y-117270400D03*
%TD*%
%TO.C,K91*%
X459658800Y-136222000D03*
%TD*%
%TO.C,K30*%
X150680800Y-117270400D03*
%TD*%
%TO.C,K6*%
X66860800Y-155370400D03*
%TD*%
D11*
%TO.C,D8*%
X468163635Y-50322664D03*
X466288635Y-50322664D03*
%TD*%
D10*
%TO.C,K79*%
X421558800Y-79072000D03*
%TD*%
%TO.C,K1*%
X50858800Y-50611600D03*
%TD*%
%TO.C,K71*%
X315036829Y-117297436D03*
%TD*%
D18*
%TO.C,J2*%
X440300000Y-43000000D03*
D19*
X437760000Y-43000000D03*
X435220000Y-43000000D03*
X432680000Y-43000000D03*
%TD*%
D10*
%TO.C,K72*%
X326956800Y-79170400D03*
%TD*%
%TO.C,K3*%
X60256800Y-98220400D03*
%TD*%
D20*
%TO.C,J1*%
X174000000Y-35000000D03*
X175250000Y-37500000D03*
X176500000Y-35000000D03*
X177750000Y-37500000D03*
X179000000Y-35000000D03*
X180250000Y-37500000D03*
X181500000Y-35000000D03*
X182750000Y-37500000D03*
X184000000Y-35000000D03*
X185250000Y-37500000D03*
X186500000Y-35000000D03*
X187750000Y-37500000D03*
X189000000Y-35000000D03*
X190250000Y-37500000D03*
X191500000Y-35000000D03*
X192750000Y-37500000D03*
X194000000Y-35000000D03*
X195250000Y-37500000D03*
X196500000Y-35000000D03*
X197750000Y-37500000D03*
X199000000Y-35000000D03*
X200250000Y-37500000D03*
X201500000Y-35000000D03*
X202750000Y-37500000D03*
X204000000Y-35000000D03*
X205250000Y-37500000D03*
X206500000Y-35000000D03*
X207750000Y-37500000D03*
X209000000Y-35000000D03*
X210250000Y-37500000D03*
X211500000Y-35000000D03*
X212750000Y-37500000D03*
%TD*%
M02*
