ISO-10303-21;
HEADER;
/* Generated by software containing ST-Developer
 * from STEP Tools, Inc. (www.steptools.com) 
 */

FILE_DESCRIPTION(
/* description */ (''),
/* implementation_level */ '2;1');

FILE_NAME(
/* name */ 'Light Pipe Commodore.stp',
/* time_stamp */ '2026-02-01T08:58:34-05:00',
/* author */ ('adam'),
/* organization */ (''),
/* preprocessor_version */ 'ST-DEVELOPER v20',
/* originating_system */ 'Autodesk Inventor 2025',
/* authorisation */ '');

FILE_SCHEMA (('AUTOMOTIVE_DESIGN { 1 0 10303 214 3 1 1 }'));
ENDSEC;

DATA;
#10=MECHANICAL_DESIGN_GEOMETRIC_PRESENTATION_REPRESENTATION('',(#13),#392);
#11=SHAPE_REPRESENTATION_RELATIONSHIP('SRR','None',#399,#12);
#12=ADVANCED_BREP_SHAPE_REPRESENTATION('',(#14),#391);
#13=STYLED_ITEM('',(#408),#14);
#14=MANIFOLD_SOLID_BREP('Solid1',#231);
#15=CYLINDRICAL_SURFACE('',#262,9.99999999999999);
#16=CIRCLE('',#258,9.99999999999999);
#17=CIRCLE('',#263,9.99999999999999);
#18=FACE_OUTER_BOUND('',#30,.T.);
#19=FACE_OUTER_BOUND('',#31,.T.);
#20=FACE_OUTER_BOUND('',#32,.T.);
#21=FACE_OUTER_BOUND('',#33,.T.);
#22=FACE_OUTER_BOUND('',#34,.T.);
#23=FACE_OUTER_BOUND('',#35,.T.);
#24=FACE_OUTER_BOUND('',#36,.T.);
#25=FACE_OUTER_BOUND('',#37,.T.);
#26=FACE_OUTER_BOUND('',#38,.T.);
#27=FACE_OUTER_BOUND('',#39,.T.);
#28=FACE_OUTER_BOUND('',#40,.T.);
#29=FACE_OUTER_BOUND('',#41,.T.);
#30=EDGE_LOOP('',(#148,#149,#150,#151));
#31=EDGE_LOOP('',(#152,#153,#154,#155));
#32=EDGE_LOOP('',(#156,#157,#158,#159));
#33=EDGE_LOOP('',(#160,#161,#162,#163,#164,#165,#166,#167,#168,#169));
#34=EDGE_LOOP('',(#170,#171,#172,#173));
#35=EDGE_LOOP('',(#174,#175,#176,#177));
#36=EDGE_LOOP('',(#178,#179,#180,#181));
#37=EDGE_LOOP('',(#182,#183,#184,#185));
#38=EDGE_LOOP('',(#186,#187,#188,#189));
#39=EDGE_LOOP('',(#190,#191,#192,#193));
#40=EDGE_LOOP('',(#194,#195,#196,#197));
#41=EDGE_LOOP('',(#198,#199,#200,#201,#202,#203,#204,#205,#206,#207));
#42=LINE('',#330,#70);
#43=LINE('',#332,#71);
#44=LINE('',#334,#72);
#45=LINE('',#335,#73);
#46=LINE('',#339,#74);
#47=LINE('',#341,#75);
#48=LINE('',#343,#76);
#49=LINE('',#344,#77);
#50=LINE('',#346,#78);
#51=LINE('',#347,#79);
#52=LINE('',#350,#80);
#53=LINE('',#352,#81);
#54=LINE('',#354,#82);
#55=LINE('',#358,#83);
#56=LINE('',#360,#84);
#57=LINE('',#361,#85);
#58=LINE('',#364,#86);
#59=LINE('',#365,#87);
#60=LINE('',#368,#88);
#61=LINE('',#369,#89);
#62=LINE('',#372,#90);
#63=LINE('',#373,#91);
#64=LINE('',#377,#92);
#65=LINE('',#380,#93);
#66=LINE('',#381,#94);
#67=LINE('',#384,#95);
#68=LINE('',#385,#96);
#69=LINE('',#387,#97);
#70=VECTOR('',#272,10.);
#71=VECTOR('',#273,10.);
#72=VECTOR('',#274,10.);
#73=VECTOR('',#275,10.);
#74=VECTOR('',#278,10.);
#75=VECTOR('',#279,10.);
#76=VECTOR('',#280,10.);
#77=VECTOR('',#281,10.);
#78=VECTOR('',#284,10.);
#79=VECTOR('',#285,10.);
#80=VECTOR('',#288,10.);
#81=VECTOR('',#289,10.);
#82=VECTOR('',#290,10.);
#83=VECTOR('',#293,10.);
#84=VECTOR('',#294,10.);
#85=VECTOR('',#295,10.);
#86=VECTOR('',#298,10.);
#87=VECTOR('',#299,10.);
#88=VECTOR('',#302,10.);
#89=VECTOR('',#303,10.);
#90=VECTOR('',#306,10.);
#91=VECTOR('',#307,10.);
#92=VECTOR('',#312,10.);
#93=VECTOR('',#315,10.);
#94=VECTOR('',#316,10.);
#95=VECTOR('',#319,10.);
#96=VECTOR('',#320,10.);
#97=VECTOR('',#323,10.);
#98=VERTEX_POINT('',#328);
#99=VERTEX_POINT('',#329);
#100=VERTEX_POINT('',#331);
#101=VERTEX_POINT('',#333);
#102=VERTEX_POINT('',#337);
#103=VERTEX_POINT('',#338);
#104=VERTEX_POINT('',#340);
#105=VERTEX_POINT('',#342);
#106=VERTEX_POINT('',#349);
#107=VERTEX_POINT('',#351);
#108=VERTEX_POINT('',#353);
#109=VERTEX_POINT('',#355);
#110=VERTEX_POINT('',#357);
#111=VERTEX_POINT('',#359);
#112=VERTEX_POINT('',#363);
#113=VERTEX_POINT('',#367);
#114=VERTEX_POINT('',#371);
#115=VERTEX_POINT('',#375);
#116=VERTEX_POINT('',#379);
#117=VERTEX_POINT('',#383);
#118=EDGE_CURVE('',#98,#99,#42,.T.);
#119=EDGE_CURVE('',#100,#98,#43,.T.);
#120=EDGE_CURVE('',#101,#100,#44,.T.);
#121=EDGE_CURVE('',#101,#99,#45,.T.);
#122=EDGE_CURVE('',#102,#103,#46,.T.);
#123=EDGE_CURVE('',#104,#102,#47,.T.);
#124=EDGE_CURVE('',#105,#104,#48,.T.);
#125=EDGE_CURVE('',#103,#105,#49,.T.);
#126=EDGE_CURVE('',#98,#103,#50,.T.);
#127=EDGE_CURVE('',#100,#105,#51,.T.);
#128=EDGE_CURVE('',#106,#99,#52,.T.);
#129=EDGE_CURVE('',#107,#106,#53,.T.);
#130=EDGE_CURVE('',#108,#107,#54,.T.);
#131=EDGE_CURVE('',#109,#108,#16,.T.);
#132=EDGE_CURVE('',#110,#109,#55,.T.);
#133=EDGE_CURVE('',#111,#110,#56,.T.);
#134=EDGE_CURVE('',#102,#111,#57,.T.);
#135=EDGE_CURVE('',#112,#101,#58,.T.);
#136=EDGE_CURVE('',#106,#112,#59,.T.);
#137=EDGE_CURVE('',#113,#112,#60,.T.);
#138=EDGE_CURVE('',#107,#113,#61,.T.);
#139=EDGE_CURVE('',#114,#113,#62,.T.);
#140=EDGE_CURVE('',#108,#114,#63,.T.);
#141=EDGE_CURVE('',#115,#114,#17,.T.);
#142=EDGE_CURVE('',#109,#115,#64,.T.);
#143=EDGE_CURVE('',#116,#115,#65,.T.);
#144=EDGE_CURVE('',#110,#116,#66,.T.);
#145=EDGE_CURVE('',#117,#116,#67,.T.);
#146=EDGE_CURVE('',#111,#117,#68,.T.);
#147=EDGE_CURVE('',#104,#117,#69,.T.);
#148=ORIENTED_EDGE('',*,*,#118,.F.);
#149=ORIENTED_EDGE('',*,*,#119,.F.);
#150=ORIENTED_EDGE('',*,*,#120,.F.);
#151=ORIENTED_EDGE('',*,*,#121,.T.);
#152=ORIENTED_EDGE('',*,*,#122,.F.);
#153=ORIENTED_EDGE('',*,*,#123,.F.);
#154=ORIENTED_EDGE('',*,*,#124,.F.);
#155=ORIENTED_EDGE('',*,*,#125,.F.);
#156=ORIENTED_EDGE('',*,*,#119,.T.);
#157=ORIENTED_EDGE('',*,*,#126,.T.);
#158=ORIENTED_EDGE('',*,*,#125,.T.);
#159=ORIENTED_EDGE('',*,*,#127,.F.);
#160=ORIENTED_EDGE('',*,*,#118,.T.);
#161=ORIENTED_EDGE('',*,*,#128,.F.);
#162=ORIENTED_EDGE('',*,*,#129,.F.);
#163=ORIENTED_EDGE('',*,*,#130,.F.);
#164=ORIENTED_EDGE('',*,*,#131,.F.);
#165=ORIENTED_EDGE('',*,*,#132,.F.);
#166=ORIENTED_EDGE('',*,*,#133,.F.);
#167=ORIENTED_EDGE('',*,*,#134,.F.);
#168=ORIENTED_EDGE('',*,*,#122,.T.);
#169=ORIENTED_EDGE('',*,*,#126,.F.);
#170=ORIENTED_EDGE('',*,*,#128,.T.);
#171=ORIENTED_EDGE('',*,*,#121,.F.);
#172=ORIENTED_EDGE('',*,*,#135,.F.);
#173=ORIENTED_EDGE('',*,*,#136,.F.);
#174=ORIENTED_EDGE('',*,*,#129,.T.);
#175=ORIENTED_EDGE('',*,*,#136,.T.);
#176=ORIENTED_EDGE('',*,*,#137,.F.);
#177=ORIENTED_EDGE('',*,*,#138,.F.);
#178=ORIENTED_EDGE('',*,*,#130,.T.);
#179=ORIENTED_EDGE('',*,*,#138,.T.);
#180=ORIENTED_EDGE('',*,*,#139,.F.);
#181=ORIENTED_EDGE('',*,*,#140,.F.);
#182=ORIENTED_EDGE('',*,*,#131,.T.);
#183=ORIENTED_EDGE('',*,*,#140,.T.);
#184=ORIENTED_EDGE('',*,*,#141,.F.);
#185=ORIENTED_EDGE('',*,*,#142,.F.);
#186=ORIENTED_EDGE('',*,*,#132,.T.);
#187=ORIENTED_EDGE('',*,*,#142,.T.);
#188=ORIENTED_EDGE('',*,*,#143,.F.);
#189=ORIENTED_EDGE('',*,*,#144,.F.);
#190=ORIENTED_EDGE('',*,*,#133,.T.);
#191=ORIENTED_EDGE('',*,*,#144,.T.);
#192=ORIENTED_EDGE('',*,*,#145,.F.);
#193=ORIENTED_EDGE('',*,*,#146,.F.);
#194=ORIENTED_EDGE('',*,*,#134,.T.);
#195=ORIENTED_EDGE('',*,*,#146,.T.);
#196=ORIENTED_EDGE('',*,*,#147,.F.);
#197=ORIENTED_EDGE('',*,*,#123,.T.);
#198=ORIENTED_EDGE('',*,*,#120,.T.);
#199=ORIENTED_EDGE('',*,*,#127,.T.);
#200=ORIENTED_EDGE('',*,*,#124,.T.);
#201=ORIENTED_EDGE('',*,*,#147,.T.);
#202=ORIENTED_EDGE('',*,*,#145,.T.);
#203=ORIENTED_EDGE('',*,*,#143,.T.);
#204=ORIENTED_EDGE('',*,*,#141,.T.);
#205=ORIENTED_EDGE('',*,*,#139,.T.);
#206=ORIENTED_EDGE('',*,*,#137,.T.);
#207=ORIENTED_EDGE('',*,*,#135,.T.);
#208=PLANE('',#254);
#209=PLANE('',#255);
#210=PLANE('',#256);
#211=PLANE('',#257);
#212=PLANE('',#259);
#213=PLANE('',#260);
#214=PLANE('',#261);
#215=PLANE('',#264);
#216=PLANE('',#265);
#217=PLANE('',#266);
#218=PLANE('',#267);
#219=ADVANCED_FACE('',(#18),#208,.F.);
#220=ADVANCED_FACE('',(#19),#209,.F.);
#221=ADVANCED_FACE('',(#20),#210,.T.);
#222=ADVANCED_FACE('',(#21),#211,.F.);
#223=ADVANCED_FACE('',(#22),#212,.T.);
#224=ADVANCED_FACE('',(#23),#213,.T.);
#225=ADVANCED_FACE('',(#24),#214,.T.);
#226=ADVANCED_FACE('',(#25),#15,.F.);
#227=ADVANCED_FACE('',(#26),#215,.T.);
#228=ADVANCED_FACE('',(#27),#216,.T.);
#229=ADVANCED_FACE('',(#28),#217,.T.);
#230=ADVANCED_FACE('',(#29),#218,.T.);
#231=CLOSED_SHELL('',(#219,#220,#221,#222,#223,#224,#225,#226,#227,#228,
#229,#230));
#232=DERIVED_UNIT_ELEMENT(#235,1.);
#233=DERIVED_UNIT_ELEMENT(#394,-3.);
#234=DIMENSIONAL_EXPONENTS(0.,1.,0.,0.,0.,0.,0.);
#235=(
CONVERSION_BASED_UNIT('gram',#237)
MASS_UNIT()
NAMED_UNIT(#234)
);
#236=(
MASS_UNIT()
NAMED_UNIT(*)
SI_UNIT(.KILO.,.GRAM.)
);
#237=MASS_MEASURE_WITH_UNIT(MASS_MEASURE(0.001),#236);
#238=DERIVED_UNIT((#232,#233));
#239=MEASURE_REPRESENTATION_ITEM('density measure',
POSITIVE_RATIO_MEASURE(1.),#238);
#240=PROPERTY_DEFINITION_REPRESENTATION(#245,#242);
#241=PROPERTY_DEFINITION_REPRESENTATION(#246,#243);
#242=REPRESENTATION('material name',(#244),#391);
#243=REPRESENTATION('density',(#239),#391);
#244=DESCRIPTIVE_REPRESENTATION_ITEM('Generic','Generic');
#245=PROPERTY_DEFINITION('material property','material name',#401);
#246=PROPERTY_DEFINITION('material property','density of part',#401);
#247=DATE_TIME_ROLE('creation_date');
#248=APPLIED_DATE_AND_TIME_ASSIGNMENT(#249,#247,(#401));
#249=DATE_AND_TIME(#250,#251);
#250=CALENDAR_DATE(2024,18,7);
#251=LOCAL_TIME(0,0,0.,#252);
#252=COORDINATED_UNIVERSAL_TIME_OFFSET(0,0,.BEHIND.);
#253=AXIS2_PLACEMENT_3D('',#326,#268,#269);
#254=AXIS2_PLACEMENT_3D('',#327,#270,#271);
#255=AXIS2_PLACEMENT_3D('',#336,#276,#277);
#256=AXIS2_PLACEMENT_3D('',#345,#282,#283);
#257=AXIS2_PLACEMENT_3D('',#348,#286,#287);
#258=AXIS2_PLACEMENT_3D('',#356,#291,#292);
#259=AXIS2_PLACEMENT_3D('',#362,#296,#297);
#260=AXIS2_PLACEMENT_3D('',#366,#300,#301);
#261=AXIS2_PLACEMENT_3D('',#370,#304,#305);
#262=AXIS2_PLACEMENT_3D('',#374,#308,#309);
#263=AXIS2_PLACEMENT_3D('',#376,#310,#311);
#264=AXIS2_PLACEMENT_3D('',#378,#313,#314);
#265=AXIS2_PLACEMENT_3D('',#382,#317,#318);
#266=AXIS2_PLACEMENT_3D('',#386,#321,#322);
#267=AXIS2_PLACEMENT_3D('',#388,#324,#325);
#268=DIRECTION('axis',(0.,0.,1.));
#269=DIRECTION('refdir',(1.,0.,0.));
#270=DIRECTION('center_axis',(-1.,0.,0.));
#271=DIRECTION('ref_axis',(0.,1.,0.));
#272=DIRECTION('',(0.,-1.,0.));
#273=DIRECTION('',(0.,0.,-1.));
#274=DIRECTION('',(0.,1.,0.));
#275=DIRECTION('',(0.,0.,-1.));
#276=DIRECTION('center_axis',(1.,0.,0.));
#277=DIRECTION('ref_axis',(0.,-1.,0.));
#278=DIRECTION('',(0.,1.,0.));
#279=DIRECTION('',(0.,0.,-1.));
#280=DIRECTION('',(0.,-1.,0.));
#281=DIRECTION('',(0.,0.,1.));
#282=DIRECTION('center_axis',(0.,1.,0.));
#283=DIRECTION('ref_axis',(-1.,0.,0.));
#284=DIRECTION('',(-1.,0.,0.));
#285=DIRECTION('',(-1.,0.,0.));
#286=DIRECTION('center_axis',(0.,0.,1.));
#287=DIRECTION('ref_axis',(1.,0.,0.));
#288=DIRECTION('',(-1.,-2.92163953848725E-16,0.));
#289=DIRECTION('',(0.,1.,0.));
#290=DIRECTION('',(1.,0.,0.));
#291=DIRECTION('center_axis',(0.,0.,-1.));
#292=DIRECTION('ref_axis',(-0.5875,-0.809224165481976,0.));
#293=DIRECTION('',(1.,5.69345140833414E-16,0.));
#294=DIRECTION('',(4.16333634234434E-16,-1.,0.));
#295=DIRECTION('',(-1.,0.,0.));
#296=DIRECTION('center_axis',(-2.92163953848725E-16,1.,0.));
#297=DIRECTION('ref_axis',(-1.,-2.92163953848725E-16,0.));
#298=DIRECTION('',(-1.,-2.92163953848725E-16,0.));
#299=DIRECTION('',(0.,0.,1.));
#300=DIRECTION('center_axis',(1.,0.,0.));
#301=DIRECTION('ref_axis',(0.,1.,0.));
#302=DIRECTION('',(0.,1.,0.));
#303=DIRECTION('',(0.,0.,1.));
#304=DIRECTION('center_axis',(0.,-1.,0.));
#305=DIRECTION('ref_axis',(1.,0.,0.));
#306=DIRECTION('',(1.,0.,0.));
#307=DIRECTION('',(0.,0.,1.));
#308=DIRECTION('center_axis',(0.,0.,1.));
#309=DIRECTION('ref_axis',(-0.5875,-0.809224165481976,0.));
#310=DIRECTION('center_axis',(0.,0.,-1.));
#311=DIRECTION('ref_axis',(-0.5875,-0.809224165481976,0.));
#312=DIRECTION('',(0.,0.,1.));
#313=DIRECTION('center_axis',(5.69345140833414E-16,-1.,0.));
#314=DIRECTION('ref_axis',(1.,5.69345140833414E-16,0.));
#315=DIRECTION('',(1.,5.69345140833414E-16,0.));
#316=DIRECTION('',(0.,0.,1.));
#317=DIRECTION('center_axis',(-1.,-4.16333634234434E-16,0.));
#318=DIRECTION('ref_axis',(4.16333634234434E-16,-1.,0.));
#319=DIRECTION('',(4.16333634234434E-16,-1.,0.));
#320=DIRECTION('',(0.,0.,1.));
#321=DIRECTION('center_axis',(0.,1.,0.));
#322=DIRECTION('ref_axis',(-1.,0.,0.));
#323=DIRECTION('',(-1.,0.,0.));
#324=DIRECTION('center_axis',(0.,0.,1.));
#325=DIRECTION('ref_axis',(1.,0.,0.));
#326=CARTESIAN_POINT('',(0.,0.,0.));
#327=CARTESIAN_POINT('Origin',(15.375,-4.,2.2));
#328=CARTESIAN_POINT('',(15.375,0.,0.));
#329=CARTESIAN_POINT('',(15.375,-4.,0.));
#330=CARTESIAN_POINT('',(15.375,-3.5,0.));
#331=CARTESIAN_POINT('',(15.375,0.,2.2));
#332=CARTESIAN_POINT('',(15.375,0.,1.1));
#333=CARTESIAN_POINT('',(15.375,-4.,2.2));
#334=CARTESIAN_POINT('',(15.375,-3.5,2.2));
#335=CARTESIAN_POINT('',(15.375,-4.,2.2));
#336=CARTESIAN_POINT('Origin',(0.375000000000001,0.,2.2));
#337=CARTESIAN_POINT('',(0.375000000000001,-4.,0.));
#338=CARTESIAN_POINT('',(0.375000000000001,0.,0.));
#339=CARTESIAN_POINT('',(0.375000000000001,-1.5,0.));
#340=CARTESIAN_POINT('',(0.375000000000001,-4.,2.2));
#341=CARTESIAN_POINT('',(0.375000000000001,-4.,2.2));
#342=CARTESIAN_POINT('',(0.375000000000001,0.,2.2));
#343=CARTESIAN_POINT('',(0.375000000000001,-1.5,2.2));
#344=CARTESIAN_POINT('',(0.375000000000001,0.,1.1));
#345=CARTESIAN_POINT('Origin',(15.75,0.,0.));
#346=CARTESIAN_POINT('',(15.75,0.,0.));
#347=CARTESIAN_POINT('',(15.75,0.,2.2));
#348=CARTESIAN_POINT('Origin',(7.875,-3.,0.));
#349=CARTESIAN_POINT('',(17.65,-4.,0.));
#350=CARTESIAN_POINT('',(17.65,-4.,0.));
#351=CARTESIAN_POINT('',(17.65,-5.99999999999999,0.));
#352=CARTESIAN_POINT('',(17.65,-5.99999999999999,0.));
#353=CARTESIAN_POINT('',(13.75,-5.99999999999999,0.));
#354=CARTESIAN_POINT('',(13.75,-5.99999999999999,0.));
#355=CARTESIAN_POINT('',(2.,-6.,0.));
#356=CARTESIAN_POINT('Origin',(7.87500000000001,-14.0922416548197,0.));
#357=CARTESIAN_POINT('',(-1.9,-6.,0.));
#358=CARTESIAN_POINT('',(-1.9,-6.,0.));
#359=CARTESIAN_POINT('',(-1.9,-4.,0.));
#360=CARTESIAN_POINT('',(-1.9,-4.,0.));
#361=CARTESIAN_POINT('',(8.32667268468867E-16,-4.,0.));
#362=CARTESIAN_POINT('Origin',(17.65,-4.,0.));
#363=CARTESIAN_POINT('',(17.65,-4.,2.2));
#364=CARTESIAN_POINT('',(17.65,-4.,2.2));
#365=CARTESIAN_POINT('',(17.65,-4.,0.));
#366=CARTESIAN_POINT('Origin',(17.65,-5.99999999999999,0.));
#367=CARTESIAN_POINT('',(17.65,-5.99999999999999,2.2));
#368=CARTESIAN_POINT('',(17.65,-5.99999999999999,2.2));
#369=CARTESIAN_POINT('',(17.65,-5.99999999999999,0.));
#370=CARTESIAN_POINT('Origin',(13.75,-5.99999999999999,0.));
#371=CARTESIAN_POINT('',(13.75,-5.99999999999999,2.2));
#372=CARTESIAN_POINT('',(13.75,-5.99999999999999,2.2));
#373=CARTESIAN_POINT('',(13.75,-5.99999999999999,0.));
#374=CARTESIAN_POINT('Origin',(7.87500000000001,-14.0922416548197,0.));
#375=CARTESIAN_POINT('',(2.,-6.,2.2));
#376=CARTESIAN_POINT('Origin',(7.87500000000001,-14.0922416548197,2.2));
#377=CARTESIAN_POINT('',(2.,-6.,0.));
#378=CARTESIAN_POINT('Origin',(-1.9,-6.,0.));
#379=CARTESIAN_POINT('',(-1.9,-6.,2.2));
#380=CARTESIAN_POINT('',(-1.9,-6.,2.2));
#381=CARTESIAN_POINT('',(-1.9,-6.,0.));
#382=CARTESIAN_POINT('Origin',(-1.9,-4.,0.));
#383=CARTESIAN_POINT('',(-1.9,-4.,2.2));
#384=CARTESIAN_POINT('',(-1.9,-4.,2.2));
#385=CARTESIAN_POINT('',(-1.9,-4.,0.));
#386=CARTESIAN_POINT('Origin',(7.34788079488412E-16,-4.,0.));
#387=CARTESIAN_POINT('',(4.125,-4.,2.2));
#388=CARTESIAN_POINT('Origin',(7.875,-3.,2.2));
#389=UNCERTAINTY_MEASURE_WITH_UNIT(LENGTH_MEASURE(0.01),#393,
'DISTANCE_ACCURACY_VALUE',
'Maximum model space distance between geometric entities at asserted c
onnectivities');
#390=UNCERTAINTY_MEASURE_WITH_UNIT(LENGTH_MEASURE(0.01),#393,
'DISTANCE_ACCURACY_VALUE',
'Maximum model space distance between geometric entities at asserted c
onnectivities');
#391=(
GEOMETRIC_REPRESENTATION_CONTEXT(3)
GLOBAL_UNCERTAINTY_ASSIGNED_CONTEXT((#389))
GLOBAL_UNIT_ASSIGNED_CONTEXT((#393,#395,#396))
REPRESENTATION_CONTEXT('','3D')
);
#392=(
GEOMETRIC_REPRESENTATION_CONTEXT(3)
GLOBAL_UNCERTAINTY_ASSIGNED_CONTEXT((#390))
GLOBAL_UNIT_ASSIGNED_CONTEXT((#393,#395,#396))
REPRESENTATION_CONTEXT('','3D')
);
#393=(
LENGTH_UNIT()
NAMED_UNIT(*)
SI_UNIT(.MILLI.,.METRE.)
);
#394=(
LENGTH_UNIT()
NAMED_UNIT(*)
SI_UNIT(.CENTI.,.METRE.)
);
#395=(
NAMED_UNIT(*)
PLANE_ANGLE_UNIT()
SI_UNIT($,.RADIAN.)
);
#396=(
NAMED_UNIT(*)
SI_UNIT($,.STERADIAN.)
SOLID_ANGLE_UNIT()
);
#397=SHAPE_DEFINITION_REPRESENTATION(#398,#399);
#398=PRODUCT_DEFINITION_SHAPE('',$,#401);
#399=SHAPE_REPRESENTATION('',(#253),#391);
#400=PRODUCT_DEFINITION_CONTEXT('part definition',#405,'design');
#401=PRODUCT_DEFINITION('Light Pipe Commodore','Light Pipe Commodore',#402,
#400);
#402=PRODUCT_DEFINITION_FORMATION('',$,#407);
#403=PRODUCT_RELATED_PRODUCT_CATEGORY('Light Pipe Commodore',
'Light Pipe Commodore',(#407));
#404=APPLICATION_PROTOCOL_DEFINITION('international standard',
'automotive_design',2009,#405);
#405=APPLICATION_CONTEXT(
'Core Data for Automotive Mechanical Design Process');
#406=PRODUCT_CONTEXT('part definition',#405,'mechanical');
#407=PRODUCT('Light Pipe Commodore','Light Pipe Commodore',$,(#406));
#408=PRESENTATION_STYLE_ASSIGNMENT((#409));
#409=SURFACE_STYLE_USAGE(.BOTH.,#412);
#410=SURFACE_STYLE_RENDERING_WITH_PROPERTIES($,#416,(#411));
#411=SURFACE_STYLE_TRANSPARENT(0.);
#412=SURFACE_SIDE_STYLE('',(#413,#410));
#413=SURFACE_STYLE_FILL_AREA(#414);
#414=FILL_AREA_STYLE('',(#415));
#415=FILL_AREA_STYLE_COLOUR('',#416);
#416=COLOUR_RGB('',0.749019607843137,0.749019607843137,0.749019607843137);
ENDSEC;
END-ISO-10303-21;
